<svg xmlns="http://www.w3.org/2000/svg" xmlns:xlink="http://www.w3.org/1999/xlink" viewBox="0 0 4800 2700"><defs><style>.cls-1{fill:none;}.cls-2{fill:#ea435b;}.cls-3{isolation:isolate;}.cls-4,.cls-45{fill:#ffc7cd;}.cls-5{clip-path:url(#clip-path);}.cls-6{fill:#fff;}.cls-7{fill:#ff9382;}.cls-8{fill:#0a3b4f;}.cls-9{fill:#0f4b6a;}.cls-10{fill:#dde8f6;}.cls-11{fill:#ffa496;}.cls-12{fill:#834d03;}.cls-13{fill:#fbe1e3;}.cls-14{fill:#f4f9ff;}.cls-15{fill:#264e6b;}.cls-15,.cls-37{opacity:0.2;}.cls-15,.cls-25,.cls-86{mix-blend-mode:multiply;}.cls-16,.cls-62{opacity:0.3;}.cls-17{fill:#eec48a;}.cls-18{fill:#f6e5ba;}.cls-19,.cls-42,.cls-43,.cls-44{fill:#8a1138;}.cls-20{fill:#c69c5c;}.cls-21{fill:#d52821;}.cls-22{fill:#d8ae6f;}.cls-23{fill:#4d4d4d;mix-blend-mode:screen;}.cls-24{fill:#e01d4a;}.cls-25{fill:#666;}.cls-26{fill:#3e465b;}.cls-27{fill:#4d576d;}.cls-28{fill:#987a7e;}.cls-29{fill:#f76f6b;}.cls-30{fill:#cfe8ff;}.cls-31{fill:#bddcf3;}.cls-32{fill:#e0f1ff;}.cls-33{fill:#f1d7bc;}.cls-34{fill:#d5b38f;}.cls-35{fill:#e3c5a1;}.cls-36{fill:#e49388;}.cls-37{fill:#eaf4fb;}.cls-37,.cls-62{mix-blend-mode:overlay;}.cls-38{opacity:0.6;}.cls-39{fill:#d3f2fb;}.cls-40{fill:#b2e2f1;}.cls-41{fill:#b5e8fd;}.cls-42{font-size:85.05px;}.cls-42,.cls-43,.cls-44,.cls-45{font-family:OpenSans-Bold, Open Sans;font-weight:700;}.cls-43{font-size:511.04px;}.cls-44{font-size:82.02px;}.cls-45{font-size:194.24px;}.cls-46{fill:#d27809;}.cls-47{fill:#ff8400;}.cls-48{fill:#f1f1f1;}.cls-49{fill:#f76627;}.cls-50{fill:#ff7443;}.cls-51{fill:#085a96;}.cls-52{fill:#0b2f49;}.cls-53{fill:#c2c2c7;}.cls-54{fill:#c7c5c3;}.cls-55{fill:#1d222d;}.cls-56{fill:#d2cfcd;}.cls-57{fill:#f8f5f6;}.cls-58{fill:#df9388;}.cls-59{fill:#f0a89a;}.cls-60{fill:#f3b3aa;}.cls-61{fill:#747382;}.cls-63{fill:#2a2e3e;}.cls-64{fill:#2f3445;}.cls-65{fill:#1d202b;}.cls-66{fill:#cd706b;}.cls-67{fill:#da837b;}.cls-68{fill:#812e21;}.cls-69{fill:#974331;}.cls-70{fill:#664948;}.cls-71{fill:#745552;}.cls-72{fill:#d08b4e;}.cls-73{fill:#ecad6f;}.cls-74{fill:#be7b43;}.cls-75{fill:#f0658f;}.cls-76{fill:#f798b6;}.cls-77{fill:#df8c81;}.cls-78{fill:#c34837;}.cls-79{fill:#d05944;}.cls-80{fill:#eea473;}.cls-81{fill:#1c202b;}.cls-82{fill:#f3b286;}.cls-83{clip-path:url(#clip-path-2);}.cls-84{fill:#282c3a;}.cls-85{fill:#171a23;}.cls-86{fill:#989898;}.cls-87{fill:#a6cde9;}.cls-88{fill:#a13c39;}.cls-89{fill:#8d2d2d;}.cls-90{fill:#a43d30;}.cls-91{fill:#9d3913;}</style><clipPath id="clip-path"><rect class="cls-1" width="4800" height="2700"/></clipPath><clipPath id="clip-path-2"><path class="cls-2" d="M1185.08,1833.66l-.32,113a2.16,2.16,0,0,1-1.27,1.76,6.75,6.75,0,0,1-6.14,0,2.17,2.17,0,0,1-1.28-1.78l.32-113a2.2,2.2,0,0,0,1.28,1.79,6.78,6.78,0,0,0,6.14,0A2.18,2.18,0,0,0,1185.08,1833.66Z"/></clipPath></defs><g class="cls-3"><g id="Background"><rect class="cls-4" width="4800" height="2700"/></g><g id="Layer_5" data-name="Layer 5"><g class="cls-5"><path class="cls-6" d="M678.9,435.6s80.89-71.83,180.57,63,150.62,476.29,85,674.71l-85,380.51-139.13-92.89L705.49,784Z"/><polygon class="cls-7" points="398.16 361.27 437.78 310.23 587.52 329.72 719.19 482.29 738.38 639.32 538.79 686.95 412.89 625.79 384.52 514.58 392.97 425 398.16 361.27"/><path class="cls-8" d="M565.85,1584.42s277.73-339.1,298.39-321.27c72.56,472.9-6.08,722.3-34,926.54C814,2308,792.69,2664.06,825.71,2794.84c-.23,72.14-243.85,55.59-246.91-11.94-6.32-138.53-51.48-318.54-22.91-601.93C575.23,2139.53,565.85,1584.42,565.85,1584.42Z"/><path class="cls-9" d="M358.4,1316.45c24-19.42,467.82-93.53,505.84-53.3-15.27,296.53-225.36,448.1-225.36,448.1S580,2254.73,527.79,2436.18s-34,574.88-34,574.88-93,63.53-222.3,0c0,0-53.22-413,28.26-712.45C319.09,2227.71,251,1427.39,358.4,1316.45Z"/><path d="M864.24,1263.15s-199.59,190.48-505.84,53.3c-2.18-17.83-9-71.47-9-71.47l514.84-49.31Z"/><path class="cls-10" d="M393,425s40.9,239.82,217.85,189.66c146.67-41.59-14.19-190.51-14.19-190.51s93.8-22.06,119.62-7.29C795.4,461.9,879.51,598.5,879.51,721c0,132.1-15.27,474.64-15.27,474.64S627.79,1398.05,349.4,1245C343.71,999.92,51.09,796.11,211,557.68,351.3,477.76,393,425,393,425Z"/><path class="cls-6" d="M393,425S401.6,603.27,546.5,674.2l64.32-59.54,109.52,20.53L673.67,477.37,631.11,567.8l-53.19,12.42L396.35,383.48Z"/><path class="cls-11" d="M436.93,119.09,549.49,92s139.08,25.11,153,42.9C740.09,172.66,730,266.73,730,266.73s-7,192.58-9.54,211.1c-2.52,18.34-43.18,53.77-76.44,50.24S492.32,465.24,474.64,438s-29.26-62-29.26-62c-47.37-2.68-61.67-48.57-61.67-48.57S362,268.56,365,235.34,436.93,119.09,436.93,119.09Z"/><path class="cls-12" d="M500.19,14.43s102.1-26.63,204.16,88.42c5,5.77-6,86.52-40.78,101-34.92,14.46-88.88-2.63-124.62,11S471,277,454.84,312.16c-28.07-23.56-29.54-46.59-51.64-40.81-39.07,10.15-1.7,81.09-1.7,81.09s1.2,17-10.24,3.87c-16.2-32.25-48.45-117.6-38-195C369.52,42.19,500.19,14.43,500.19,14.43Z"/><rect class="cls-13" x="1054.26" y="105.68" width="795.65" height="732.26" rx="137.89"/><path class="cls-11" d="M2413.8,2058.79c15.36,213-5.13,232,61.47,317.62s196.13,236.38,196.13,360.06-16.83,136.85-36.59,193.2-26.35,85.63-2.19,116.37,107.57-16.1,126.6-33.67,29.28-98.8,38.79-122.95,23.42-36.59,27.08-82.69-10.61-70.62-22.32-90-19.76-24.88-28.54-58.91-17.93-188.45-52.33-261.63-56.35-65.14-76.12-149.3-26.05-227.6-26.05-227.6Z"/><path class="cls-7" d="M2331.46,2118.44c6.59,185.51,102.09,619.13,101,681.7s-18.12,74.65-29.09,95S2290.85,2989,2290.85,2989s-36.23,31.84-14.27,71.91,70.25,27.44,98.25,3.29,85.07-78.49,112.51-92.21,88.37-19.21,104.29-62.57-15.37-74.1-20.86-82.89-17.56-35.12-19.21-82.32-3.84-283.52-15.91-392.6-95.51-277-95.51-277Z"/><path class="cls-9" d="M2143,1327.69c-30.73,49-43.17,73.91-41.71,105.38s35.13,291.27,45.38,345.43,87.08,361.52,91.48,422.27c38.05,90,81.23,90.74,104.65,98.06s102.45,54.16,201.25,52.7,154.42-30,179.3-137.59-.73-179.3,0-274.44,28.54-226.14,6.59-363-78.75-231.35-139.78-281.75-149.3-63-191-60.76S2143,1327.69,2143,1327.69Z"/><path class="cls-14" d="M2055.2,685.87c-44.47-15.32-79.78,36.59-101,91.47s-65.87,202-95.87,356.41,108.31,147.1,150,68.06S2121.06,708.55,2055.2,685.87Z"/><path class="cls-10" d="M2131.12,641.41c-55.43,14.82-111.42,26.34-135,74.64s-37.32,224-36.78,324.39,52.5,158,85.9,216.39,56.81,123.55,71.45,144,90,38.06,159.54,35.13,199.06-46.84,221.74-73.19,39.53-296.39,39.53-296.39,61.88-231.6,41.83-265.74-68.91-80.78-111.73-102.19-88.37-65.31-128.43-80.69S2131.12,641.41,2131.12,641.41Z"/><path class="cls-8" d="M2680.54,2304l7.3-4.86c-23.37-35.24-38.13-194.24-34.73-302.39,2.71-86.6-10.94-222.24-18.28-295.12-1.64-16.35-3-29.79-3.81-39.11-3.3-38-42.5-122.23-77.07-196.55-12.95-27.84-25.19-54.13-34-74.84l-8.09,3.43c8.89,20.86,21.15,47.21,34.13,75.11,32.59,70,73.12,157.15,76.3,193.61.82,9.37,2.16,22.83,3.82,39.23,7.31,72.67,20.91,208,18.22,294C2641.23,2094.94,2653.81,2263.7,2680.54,2304Z"/><ellipse class="cls-15" cx="676.6" cy="3044" rx="621.81" ry="418.48"/><path class="cls-16" d="M1714.61,662.2,1442.34,505l48.17-27.82,272.31,157.21Z"/><polygon class="cls-17" points="1483.69 489.06 1743.87 639.26 1743.87 384.42 1483.68 234.21 1483.69 489.06"/><path class="cls-18" d="M1714.61,652.44l42.62-24.6-266.72-154-42.57,24.57Z"/><polygon class="cls-19" points="1757.23 627.84 1724.92 634.29 1714.61 652.44 1714.61 658.98 1757.23 634.37 1757.23 627.84"/><polygon class="cls-17" points="1714.61 652.44 1447.94 498.43 1447.94 504.97 1714.61 658.98 1714.61 652.44"/><polygon class="cls-19" points="1496.21 233.1 1474.48 257.85 1453.6 257.69 1447.94 254.43 1490.55 229.83 1496.21 233.1"/><path class="cls-20" d="M1453.59,501.7l42.58-24.57,0-244-42.61,24.59Z"/><polygon class="cls-17" points="1453.6 257.69 1453.59 501.7 1447.94 498.43 1447.94 254.43 1453.6 257.69"/><polygon class="cls-19" points="1757.23 383.84 1735.49 408.57 1714.61 408.43 1708.96 405.16 1751.56 380.56 1757.23 383.84"/><path class="cls-19" d="M1714.61,652.44l42.56-24.57.06-244-42.62,24.59Z"/><polygon class="cls-17" points="1714.61 408.43 1714.61 652.44 1708.95 649.17 1708.96 405.16 1714.61 408.43"/><polygon class="cls-19" points="1757.23 377.3 1724.93 383.73 1714.61 401.89 1714.61 408.43 1757.23 383.84 1757.23 377.3"/><path class="cls-21" d="M1714.61,401.89l42.62-24.59-266.72-154-42.57,24.58Z"/><polygon class="cls-17" points="1714.61 401.89 1447.94 247.9 1447.94 254.43 1714.61 408.43 1714.61 401.89"/><path class="cls-16" d="M1364,772.2l-222.6-128.51,265.56-153.27,222.6,128.51Z"/><polygon class="cls-22" points="1402.94 483.67 1149.34 630.09 1364.45 754.27 1618.05 607.86 1402.94 483.67"/><path class="cls-20" d="M1152.48,526.22v120.7l260-150.1V376.18Z"/><polygon class="cls-21" points="1152.47 646.92 1162.78 543.78 1152.47 526.22 1146.96 523.02 1146.96 643.73 1152.47 646.92"/><polygon class="cls-18" points="1152.47 526.22 1412.43 376.18 1406.92 372.98 1146.96 523.02 1152.47 526.22"/><polygon class="cls-19" points="1612.88 618.97 1602.58 515.84 1612.88 498.27 1618.4 495.09 1618.4 615.78 1612.88 618.97"/><path class="cls-17" d="M1406.92,379.36V500l206,119V498.27Z"/><polygon class="cls-18" points="1612.88 498.27 1406.92 379.36 1412.43 376.18 1618.4 495.09 1612.88 498.27"/><path class="cls-21" d="M1428.19,280.27V529.18h0c.11,9.62-6.16,19.23-18.83,26.54-25.23,14.57-66.28,14.49-91.67-.17-12.9-7.45-19.27-17.23-19.11-27V281h0l1,.57c2.24-7.24,8.17-14.15,17.83-19.73,25.23-14.58,66.27-14.5,91.66.16,9.31,5.37,15.2,12,17.72,18.87Z"/><path class="cls-23" d="M1338.42,316.36V562a82.77,82.77,0,0,1-16.75-6V310.41A82.15,82.15,0,0,0,1338.42,316.36Z"/><path class="cls-23" d="M1318.46,308.73V554.34l-.78-.43c-1.52-.88-2.94-1.79-4.29-2.73V305.56c1.35.94,2.77,1.86,4.29,2.73Z"/><path class="cls-24" d="M1409.35,307.27c-25.24,14.58-66.27,14.5-91.67-.16s-25.51-38.36-.29-52.93c18.61-10.73,45.78-13.5,69-8.35a79.87,79.87,0,0,1,22.7,8.52,44.91,44.91,0,0,1,13.83,11.76C1433.08,279.77,1428.57,296.16,1409.35,307.27Z"/><path class="cls-25" d="M1422.89,266.11,1388.51,286l-35.91-20.64,33.76-19.48a79.87,79.87,0,0,1,22.7,8.52A44.91,44.91,0,0,1,1422.89,266.11Z"/><path class="cls-26" d="M1397.38,190.81v81.84h0c.06,5.05-3.24,10.09-9.88,13.93-13.24,7.64-34.78,7.6-48.1-.09-6.77-3.91-10.11-9-10-14.15V191.19h0l.52.3c1.18-3.8,4.29-7.43,9.36-10.36,13.24-7.64,34.78-7.6,48.1.09,4.88,2.82,8,6.27,9.29,9.9Z"/><path class="cls-23" d="M1350.28,209.75v80.11a43.51,43.51,0,0,1-8.79-3.12V206.63A43.51,43.51,0,0,0,1350.28,209.75Z"/><path class="cls-23" d="M1339.8,205.74v80.11l-.4-.22q-1.2-.69-2.25-1.44V204.08a24.73,24.73,0,0,0,2.25,1.43Z"/><path class="cls-26" d="M1387.5,205c-13.24,7.64-34.78,7.61-48.1-.09s-13.39-20.12-.15-27.77,34.77-7.6,48.1.09S1400.74,197.34,1387.5,205Z"/><path class="cls-27" d="M1387.5,203.07c-13.24,7.65-34.78,7.61-48.1-.09-6.27-3.61-9.56-8.28-10-13-.45,5.36,2.85,10.82,10,14.92,13.32,7.7,34.86,7.73,48.1.09,7-4,10.25-9.44,9.8-14.76C1396.91,194.9,1393.67,199.51,1387.5,203.07Z"/><path class="cls-2" d="M1266.44,600.68c2.73,11.34,20.86,16.71,40.5,12s33.35-17.76,30.62-29.1l-30.83-129.4c2.73,11.34-11,24.37-30.62,29.1s-37.77-.64-40.5-12Z"/><path class="cls-26" d="M1306.73,454.16c2.73,11.34-11,24.37-30.62,29.1s-37.77-.64-40.5-12,11-24.37,30.62-29.1S1304,442.81,1306.73,454.16Z"/><path class="cls-2" d="M1239.11,468c2.43,10.06,18.51,14.81,35.92,10.62s29.57-15.74,27.15-25.8L1293,414.25c2.42,10.06-9.74,21.61-27.15,25.8s-33.5-.56-35.92-10.62Z"/><path class="cls-26" d="M1293,414.25c2.42,10.06-9.74,21.61-27.15,25.8s-33.5-.56-35.92-10.62,9.74-21.61,27.15-25.8S1290.55,404.19,1293,414.25Z"/><ellipse class="cls-28" cx="1261.44" cy="421.84" rx="27.01" ry="15.6" transform="translate(-63.69 306.92) rotate(-13.53)"/><path class="cls-29" d="M1273.33,368c-4.68-19.21-26.14-34.83-32.64-33.29S1222,360,1226.59,379.3l11.46,48.15c1.8,7.45,13.72,11,26.63,7.87s21.92-11.67,20.13-19.13L1273.35,368Z"/><path class="cls-2" d="M1267.76,367.46c1.38,5.82-5.63,12.5-15.7,14.92s-19.37-.32-20.76-6.14c-3-12.76,3.94-34.58,10.63-36.2S1264.59,354.15,1267.76,367.46Z"/><polygon class="cls-30" points="1546.18 516.27 1521.06 645.46 1396.89 689 1422.01 559.79 1546.18 516.27"/><polygon class="cls-31" points="1422.01 559.79 1396.89 689 1296.85 602.53 1321.98 473.33 1422.01 559.79"/><polygon class="cls-32" points="1546.18 516.27 1422.01 559.79 1321.98 473.33 1446.15 429.8 1546.18 516.27"/><polygon class="cls-33" points="1529.06 522.58 1507.42 633.86 1400.47 671.36 1422.12 560.08 1529.06 522.58"/><polygon class="cls-34" points="1422.12 560.08 1400.47 671.36 1314.32 596.89 1335.95 485.61 1422.12 560.08"/><polygon class="cls-35" points="1529.06 522.58 1422.12 560.08 1335.95 485.61 1442.91 448.11 1529.06 522.58"/><path class="cls-36" d="M1468.3,488.31c15.82,13.67,12.72,30.33-6.9,37.21s-48.36,1.38-64.18-12.29-12.71-30.33,6.92-37.21S1452.49,474.64,1468.3,488.31Z"/><path class="cls-2" d="M1472.92,508.33h0l9.09-47.44-79.93-15.31-9.56,49.87.25.05c0,5.28,2.87,11,8.88,16.16,13.93,12,39.24,16.88,56.53,10.82,7.46-2.62,12.19-6.84,14.06-11.76l.22,0Z"/><path class="cls-21" d="M1472.24,510.71l.22,0,.46-2.42h0l9.09-47.44-28.61-5.48-13.34,69.66a51.88,51.88,0,0,0,18.12-2.59C1465.64,519.85,1470.37,515.63,1472.24,510.71Z"/><path class="cls-29" d="M1392.52,495.44l.25.05c0,5.28,2.87,11,8.88,16.16a47.77,47.77,0,0,0,8.87,6l13-67.94-21.45-4.11Z"/><path class="cls-26" d="M1473.34,442.25c13.93,12,11.2,26.71-6.08,32.77s-42.59,1.22-56.52-10.83-11.2-26.71,6.09-32.77S1459.43,430.21,1473.34,442.25Z"/><path class="cls-2" d="M1470.69,455.52v-.06l6.38-33.29L1421,411.42l-6.39,33.32h0l-.32,1.69.17,0c0,3.7,2,7.7,6.23,11.35,9.79,8.45,27.56,11.85,39.7,7.6,5.24-1.84,8.57-4.81,9.87-8.27l.15,0Z"/><path class="cls-29" d="M1414.57,444.74h0l-.32,1.69.17,0c0,3.7,2,7.7,6.23,11.35.37.31.77.6,1.15.91l8.71-45.49-9.55-1.83Z"/><path class="cls-21" d="M1470.22,457.16l.15,0,.32-1.67v-.06l6.38-33.29-16.7-3.2-9.23,48.19a33.89,33.89,0,0,0,9.2-1.73C1465.59,463.59,1468.92,460.62,1470.22,457.16Z"/><path class="cls-28" d="M1471,409.09c9.77,8.45,7.86,18.75-4.28,23s-29.91.86-39.7-7.6-7.86-18.75,4.28-23S1461.22,400.63,1471,409.09Z"/><path class="cls-26" d="M1463.18,411.73c6.39,5.52,5.13,12.24-2.78,15s-19.53.55-25.92-5-5.13-12.25,2.8-15S1456.8,406.21,1463.18,411.73Z"/><polygon class="cls-37" points="1327.26 477.9 1341.73 639.51 1390.62 681.74 1372.62 517.69 1327.26 477.9"/><polygon class="cls-37" points="1395.97 537.49 1405.59 645.02 1422.12 560.08 1395.97 537.49"/><path class="cls-28" d="M1457.21,454.2a10.64,10.64,0,0,1,.56-1.25,1.17,1.17,0,0,0,0-.11c.19-.35.41-.7.64-1a6.3,6.3,0,0,1,.37-.53c.17-.25.36-.49.55-.72l.43-.51c.21-.22.42-.44.64-.65l.47-.45c.23-.2.48-.4.72-.59s.31-.25.47-.36a6.14,6.14,0,0,1,.84-.52l.42-.27a10.36,10.36,0,0,1,1.29-.57c.27-.09.53-.16.78-.22l.24,0a3,3,0,0,1,.51-.08l.23,0a4.34,4.34,0,0,1,.51,0h.16a5.36,5.36,0,0,1,.62.1l.08,0a2.41,2.41,0,0,1,.53.2l.16.07a4.72,4.72,0,0,1,.52.35l-4.42-3.84a2.86,2.86,0,0,0-.53-.35l-.15-.07a3.18,3.18,0,0,0-.54-.21l0,0h0a4.09,4.09,0,0,0-.61-.1H1462l-.25,0c-.16,0-.33,0-.51.07l-.23.05c-.25.06-.51.13-.78.22a10.36,10.36,0,0,0-1.29.57l-.42.25c-.28.17-.57.34-.84.53l-.47.37c-.25.19-.49.39-.72.59l-.47.44c-.13.14-.27.25-.4.39l-.24.28-.42.5c-.19.23-.38.46-.56.71l-.37.54c-.06.1-.14.18-.21.28l-.43.77-.06.11a12.49,12.49,0,0,0-.55,1.25c0,.1-.07.2-.11.3a8.7,8.7,0,0,0-.35,1.28c-.36,1.88.05,3.33,1,4.16l4.42,3.84c-1-.83-1.37-2.28-1-4.16a8.34,8.34,0,0,1,.37-1.27A1.6,1.6,0,0,1,1457.21,454.2Z"/><path class="cls-29" d="M1456.74,455.78a8.34,8.34,0,0,1,.37-1.27,1.6,1.6,0,0,1,.1-.31,10.64,10.64,0,0,1,.56-1.25,1.17,1.17,0,0,0,0-.11c.19-.35.41-.7.64-1a6.3,6.3,0,0,1,.37-.53c.17-.25.36-.49.55-.72l.43-.51c.21-.22.42-.44.64-.65l.47-.45c.23-.2.48-.4.72-.59s.31-.25.47-.36a6.14,6.14,0,0,1,.84-.52l.42-.27a10.36,10.36,0,0,1,1.29-.57c.27-.09.53-.16.78-.22l.24,0a3,3,0,0,1,.51-.08l.23,0a4.34,4.34,0,0,1,.51,0h.16a5.36,5.36,0,0,1,.62.1l.08,0a2.41,2.41,0,0,1,.53.2l.16.07a4.72,4.72,0,0,1,.52.35l-3.68-3.19c-.13,0-.25-.05-.38-.06h-.7l-.25,0c-.17,0-.35.05-.54.08l-.24,0c-.26.07-.54.14-.81.24a9.37,9.37,0,0,0-1.35.59c-.15.08-.29.18-.44.27s-.59.35-.87.55l-.5.38c-.25.2-.51.4-.75.62l-.48.45-.42.41c-.09.09-.16.19-.26.29l-.44.52q-.3.36-.57.75c-.14.19-.27.37-.39.56s-.15.2-.21.3c-.16.26-.31.53-.46.79a.61.61,0,0,0,0,.12,11.57,11.57,0,0,0-.59,1.3l-.11.32a9.43,9.43,0,0,0-.37,1.33,5.27,5.27,0,0,0,.33,3.39l3.29,2.86C1456.8,459.11,1456.39,457.66,1456.74,455.78Z"/><path class="cls-28" d="M1464.66,446.62c3.67-1.27,6,.77,5.34,4.55a13.35,13.35,0,0,1-7.92,9.16c-3.66,1.27-6-.76-5.34-4.55A13.4,13.4,0,0,1,1464.66,446.62Z"/><path class="cls-21" d="M1464.53,448.91c2.67-.93,4.39.56,3.88,3.31a9.71,9.71,0,0,1-5.76,6.65c-2.65.93-4.39-.55-3.86-3.3A9.68,9.68,0,0,1,1464.53,448.91Z"/><g class="cls-38"><polygon class="cls-39" points="1520.99 421.4 1504.48 506.24 1422.94 534.82 1439.44 449.99 1520.99 421.4"/><polygon class="cls-40" points="1439.44 449.99 1422.94 534.82 1357.26 478.04 1373.76 393.21 1439.44 449.99"/><polygon class="cls-41" points="1520.99 421.4 1439.44 449.99 1373.76 393.21 1455.3 364.62 1520.99 421.4"/></g><polygon class="cls-37" points="1488.08 536.64 1440.77 553.22 1451.22 669.95 1500.8 652.56 1488.08 536.64"/><polygon class="cls-19" points="1358.45 765.83 1348.14 662.7 1358.45 645.13 1363.96 641.94 1363.96 762.64 1358.45 765.83"/><path class="cls-21" d="M1152.48,526.22V646.87l206,119V645.13Z"/><polygon class="cls-18" points="1358.45 645.13 1152.47 526.22 1157.99 523.02 1363.96 641.94 1358.45 645.13"/><polygon class="cls-21" points="1363.96 769.01 1374.27 665.88 1363.96 648.32 1358.45 645.13 1358.45 765.83 1363.96 769.01"/><path class="cls-19" d="M1364,648.32V769l260-150.09V498.27Z"/><polygon class="cls-18" points="1363.96 648.32 1623.92 498.27 1618.4 495.09 1358.45 645.13 1363.96 648.32"/><polygon class="cls-13" points="1075.04 423.34 882.02 371.25 1096.49 316.11 1075.04 423.34"/><rect class="cls-13" x="3700.77" y="643.67" width="980.4" height="902.28" rx="169.91"/><text class="cls-42" transform="translate(4014.25 1338.81)">Combinations</text><text class="cls-43" transform="translate(3738.66 1224.31)">120</text><rect class="cls-19" x="3317.47" y="210.91" width="1423.37" height="294.13" rx="147.06"/><text class="cls-44" transform="translate(3386.15 174.99)">Objects (n)</text><text class="cls-44" transform="translate(4240.96 174.99)">Sample (r)</text><rect class="cls-4" x="4015.87" y="135.34" width="15.32" height="425.87"/><text class="cls-45" transform="translate(3752.67 427.41)">10</text><text class="cls-45" transform="translate(4530.88 427.41)">3</text><path class="cls-11" d="M3059.22,1515.88c10.26-69.45-83.9-58-83.9-58s-68-3.59-83,60.92-9.44,177.72-25.7,204.91c-55,100.08-72.39,288.52-120.21,399.41-7.15,16.54-79.08,9.3-102.78,47.33-30.19,42.13-54.32,46.62-53.32,67.56.78,16.25,55.43-11.67,78.34-23.21-1.21,15.12-49.49,58.41-37.18,83.26,12.26,25,89.89,70.5,116.81,45.95s42.21-126.37,71.47-175.77c95.07-160.53,165.07-215.89,184.48-408C3018.13,1698.45,3049,1585.33,3059.22,1515.88Z"/><path class="cls-46" d="M2957.59,1088.76c-6.48,17.35-15.63,34.4-15.78,52.93-.32,40.07,40.44,67.79,78.72,79.63s81.15,16.86,110.45,44.21c31-106.94,62.41-214.87,115.94-312.5,10.91-19.9,23-40.15,25-62.76,2-22.24-6.18-44.21-16.85-63.82-21.35-39.25-54.61-73.21-96.37-89.11-35.35-13.46-72.11-11-106.53,3.44-19,8-45.38,9.08-58.69,26.47-18.83,24.6-21.37,64.28-22.66,94-1.56,36.19,1.33,72.38,2,108.55C2973.48,1009.8,2971.74,1050.85,2957.59,1088.76Z"/><path class="cls-6" d="M3045.39,1118.77c-93.65-1.94-105,121.91-105,121.91s-49.52,270.86-56.27,303.09c-12.07,57.21,170.61,86.08,184.21,28s68.51-291.64,68.51-291.64S3169.12,1121.28,3045.39,1118.77Z"/><polygon class="cls-7" points="3213.01 945 3118.79 1080.1 3130.37 1252.42 3183.61 1335.06 3349.33 1274.89 3406.25 1184 3406.25 1101.52 3372.85 971.72 3213.01 945"/><path class="cls-8" d="M2954,2085.59c58.13,454.88,195,787.17,216.2,817.45,41.06,132.56-35.47,534.84-35.47,554.4,149.24,83.49,215-44.54,215-44.54l-8.82-1296.09S2968.75,2051.79,2954,2085.59Z"/><path class="cls-9" d="M3520.18,2210.28c-10.88-126.16-96.48-241.75-96.48-241.75S2996.36,1846.86,2983,1867.67c-36.56,120.41-29.43,201.59-25.91,220.54,87.66,181.35,225.16,244,225.16,244-41.54,255.84,19.67,655.13,36.52,736.84,16.68,81.78-30.93,562.78-48.51,627.64-19.52,72,134.86,64.82,153.4,10.43,48.24-141.49,151.39-451.36,82.64-697.81C3407.47,2944.19,3539.94,2438.83,3520.18,2210.28Z"/><path class="cls-10" d="M2983,1626.73c12.19,118.39-.44,228.19,0,240.94,314,281.43,440.75,100.86,440.75,100.86s-34.85-106.69,30.66-189.93C3452.73,1764.55,3002.11,1594.46,2983,1626.73Z"/><path class="cls-10" d="M3416.13,1140.68s-191.79,138.42-229.88,117.13S3165,1101.68,3165,1101.68s-33.2-2.55-60.41,11.62c-49.47,21.67-97.82,86.41-112.07,180-51.25,75.11-94.42,149.73-101.06,192.2-14.81,94.13,79.6,134.5,79.6,134.5s114.95,66.48,241.07,128.27c207,101.78,259.28,14.2,259.28,14.2s78.14-105.79,86.16-185.47l-23.73-291.63C3471.84,1238.21,3416.13,1140.68,3416.13,1140.68Z"/><path class="cls-11" d="M3022.84,777.09c-21,80.17-7.86,293,11.09,333.38,8.38,17.62,40.49,49.07,94.17,42.39,48.43-6.11,136.12-68.06,156.77-95,11.3-14.5-2.19-92.6-2.19-92.6,49.36-4.37-21.7-80.08-82.91-148.3S3052,696.36,3022.84,777.09Z"/><path class="cls-47" d="M3469.74,925.48c.57-61.42-7.94-233.05-122.92-269.49,0,0-28.06-62.18-151.67-36.72C3042.59,650.69,2989,780.5,2983,794.42c26.36-36.44,98.43,41.67,98.43,41.67s25.71-6.24,54.29,33.2,15.63,86,50.41,129.88c30.37,35.55,56,45.27,109.4,41.58,19.6,9.11,25.91,104.26,3.64,161,32.84-10.61,44.38-44.46,44.38-44.46,34.5,47-15.95,128-15.95,128s95.79-40.61,105.75-87.09c34,33.56,55.91,31,55.91,31s16.73-30.16,14.22-127.86C3501.08,1003.71,3469.09,986.9,3469.74,925.48Z"/><g class="cls-3"><polygon class="cls-48" points="3215.89 2375.29 3375.05 1977.62 3409.76 1984.13 3250.59 2381.8 3215.89 2375.29"/><path class="cls-49" d="M3225.25,2382l159.17-397.67a13.82,13.82,0,0,0,3.71,1.41L3229,2383.4A14,14,0,0,1,3225.25,2382Z"/><path class="cls-49" d="M3224.53,2381.24l159.16-397.67c0,.06,0,.15.1.25a2.9,2.9,0,0,0,.63.5L3225.25,2382a2.57,2.57,0,0,1-.62-.5C3224.54,2381.39,3224.51,2381.3,3224.53,2381.24Z"/><polygon class="cls-48" points="3206.39 2369.41 3365.55 1971.73 3400.26 1978.24 3241.09 2375.91 3206.39 2369.41"/><path class="cls-49" d="M3376.56,1979.2Q3297,2178.05,3217.4,2376.87a10.1,10.1,0,0,1-1.71-.84l159.17-397.67A10.35,10.35,0,0,0,3376.56,1979.2Z"/><path class="cls-49" d="M3374.85,1978.36h0L3215.69,2376h0l18.55-46.35,19.69-49.19,20.44-51.07,20.83-52,20.83-52.06c6.15-15.34,14.33-35.8,20.48-51.15,5.91-14.79,13.81-34.51,19.73-49.3Z"/><path class="cls-49" d="M3376.56,1979.2a13,13,0,0,0,2.14.65l-159.16,397.67a12.48,12.48,0,0,1-2.14-.65l9.79-24.46,10.4-26,10.8-27c3.31-8.25,7.71-19.25,11-27.5l11-27.5,10.8-27,10.4-26,9.79-24.47,8.77-21.91c2.79-7,6.51-16.27,9.31-23.25l9.66-24.14,9.84-24.59c3-7.38,6.89-17.22,9.85-24.59s6.76-16.91,9.66-24.15l9.3-23.25Z"/><path class="cls-49" d="M3374.27,1977.91a3.08,3.08,0,0,0,.58.45Q3295.28,2177.2,3215.69,2376a2.47,2.47,0,0,1-.58-.45c-.08-.1-.11-.17-.09-.23l159.17-397.67C3374.16,1977.74,3374.19,1977.81,3374.27,1977.91Z"/><path class="cls-48" d="M3215,2375.35l159.16-397.67c.05-.13.34-.16.87-.06l-159.16,397.67C3215.35,2375.19,3215.07,2375.22,3215,2375.35Z"/><path class="cls-49" d="M3365.29,1972.46h0l-159.16,397.67h0q39.77-99.33,79.51-198.65l20.84-52.06,20.47-51.15,19.73-49.3C3352.25,2005,3359.7,1986.41,3365.29,1972.46Z"/><path class="cls-49" d="M3367.36,1973.42a10.32,10.32,0,0,0,1.78.53L3210,2371.62a10.5,10.5,0,0,1-1.77-.53Q3287.78,2172.25,3367.36,1973.42Z"/><path class="cls-49" d="M3364.78,1972a2.46,2.46,0,0,0,.51.42l-159.17,397.67a2.64,2.64,0,0,1-.5-.42q-.13-.15-.09-.24l159.16-397.67Q3364.66,1971.89,3364.78,1972Z"/><polygon class="cls-49" points="3183.67 2359.81 3342.83 1962.13 3401.44 1973.12 3242.28 2370.79 3183.67 2359.81"/><path class="cls-50" d="M3347.55,1962l-159.16,397.66,19.6,3.67,156.7-391.5q0,.09.09.24a2.72,2.72,0,0,0,.5.41l-8.84,22.09c-3.42,8.53-6.85,17.12-9.77,24.43-3.72,9.28-8.17,20.42-12.47,31.14l-5.72,14.3c-.51,1.26-1.07,2.66-1.55,3.86-.55,1.38-1.18,3-1.76,4.41l-8.49,21.2-10.21,25.54c-1.1,2.73-2.31,5.77-3.51,8.75l-4,10c-1.65,4.11-3.29,8.18-4.93,12.31l-85.25,213,2.29.43,156.27-390.47a13.28,13.28,0,0,0,1.78.53l-156.21,390.28,25.29,4.74,159.16-397.66ZM3303,2128.18l13.72-34.29,8.49-21.2,3.31-8.27c1.81-4.54,3.73-9.32,5.72-14.3l22.24-55.57c.48-1.21,1-2.39,1.44-3.59q-74.53,186.27-149.1,372.5,38.41-96,76.84-192c2.55-6.35,5.46-13.64,8.42-21l4.93-12.31C3300.34,2134.72,3301.65,2131.44,3303,2128.18Z"/><path class="cls-49" d="M3208.4,2364.46l-2.27,5.68a16,16,0,0,0,2.06,1c.84-2.07,1.66-4.15,2.5-6.22Z"/><path class="cls-49" d="M3403.91,1980.47c.48.09.77,0,.82-.08l-159.16,397.67c-.05.13-.34.17-.82.08Z"/><path class="cls-48" d="M3245.48,2377.82c.26.31,0,.45-.74.32l-34.77-6.52a14.18,14.18,0,0,1-3.85-1.49,2.46,2.46,0,0,1-.51-.42c-.27-.32,0-.45.78-.31l34.7,6.51a13.42,13.42,0,0,1,3.85,1.49A2.29,2.29,0,0,1,3245.48,2377.82Z"/><path class="cls-49" d="M3399.68,1979.69l-158.59,396.22-23.68-4.43-.58,1.44,27.91,5.22,159.16-397.67Zm-183.06,391.64-6.08-1.14-.57,1.44,6.08,1.14Z"/><path class="cls-48" d="M3227.08,2374.84l-2.56,6.4c.05-.12.33-.15.86-.06l2.48-6.2Zm3.34-6.26-.78-.14-2,5,.77.15Z"/><path class="cls-49" d="M3413.33,1986.34c.52.1.82.07.87,0L3255,2384c-.05.12-.34.15-.86.05Z"/><path class="cls-48" d="M3254.94,2383.73c.26.3,0,.42-.77.28l-34.64-6.49a12.69,12.69,0,0,1-3.84-1.49,2.55,2.55,0,0,1-.59-.46c-.25-.29,0-.42.79-.28l34.7,6.51a13.34,13.34,0,0,1,3.77,1.48A2.27,2.27,0,0,1,3254.94,2383.73Z"/><path class="cls-49" d="M3409.17,1985.57,3250.59,2381.8l-23.68-4.43-.58,1.44,27.83,5.21,159.16-397.67Zm-183,391.65-6-1.14-.57,1.45,6,1.13Z"/><path class="cls-48" d="M3236.63,2380.73l-2.58,6.45c0-.13.35-.16.93,0l2.5-6.24Zm2.38-3.66-.86-.16-1,2.39.86.16Z"/><polygon class="cls-50" points="3263.24 2381.36 3422.4 1983.69 3635.85 2116.48 3476.68 2514.15 3263.24 2381.36"/><path class="cls-49" d="M3433.26,1998.1,3274.1,2395.77c0,.13-.36.16-.9.06l159.16-397.67C3432.91,1998.26,3433.21,1998.23,3433.26,1998.1Z"/><path class="cls-48" d="M3433.26,1998.1l-159.17,397.67c0-.06,0-.13-.07-.22l159.16-397.67C3433.25,1998,3433.28,1998,3433.26,1998.1Z"/><path class="cls-48" d="M3273.39,2395.09l159.16-397.67a2.6,2.6,0,0,1,.63.46L3274,2395.55A2.83,2.83,0,0,0,3273.39,2395.09Z"/><path class="cls-48" d="M3269.62,2393.61l159.16-397.67a13.65,13.65,0,0,1,3.77,1.48l-159.16,397.67A13.77,13.77,0,0,0,3269.62,2393.61Z"/><path class="cls-51" d="M3461.89,2004.71h0l-159.17,397.68h0l18.55-46.35,19.68-49.18c6.14-15.32,14.31-35.76,20.45-51.08,6.25-15.61,14.58-36.42,20.82-52l20.84-52.06,20.47-51.15,19.73-49.3C3448.86,2037.27,3456.31,2018.67,3461.89,2004.71Z"/><path class="cls-51" d="M3302.73,2402.39l159.17-397.68a12,12,0,0,0,3.5,1.37l-159.17,397.67A12,12,0,0,1,3302.73,2402.39Z"/><path class="cls-48" d="M3311,2407.29l159.17-397.68c0-.11.33-.13.84,0l-159.16,397.67C3311.37,2407.15,3311.08,2407.17,3311,2407.29Z"/><path class="cls-51" d="M3452.81,1999.12h0l-159.16,397.67h0c5.56-13.91,13-32.45,18.55-46.35,5.9-14.76,13.78-34.43,19.68-49.19,6.14-15.32,14.31-35.75,20.45-51.07,6.24-15.61,14.58-36.43,20.82-52l20.84-52.06,20.47-51.15,19.73-49.3C3439.78,2031.68,3447.23,2013.07,3452.81,1999.12Z"/><path class="cls-51" d="M3456.14,2000.42q-79.57,198.84-159.16,397.67a12.42,12.42,0,0,1-3.32-1.3l159.16-397.67A12.91,12.91,0,0,0,3456.14,2000.42Z"/><path class="cls-51" d="M3456.14,2000.42l.21,0-159.16,397.67-.21,0,17.37-43.4c5.52-13.81,12.89-32.21,18.41-46,5.74-14.33,13.39-33.44,19.12-47.77,5.85-14.59,13.64-34.06,19.48-48.66s13.64-34.07,19.48-48.68c5.75-14.35,13.41-33.49,19.15-47.84l18.47-46.13,17.43-43.57c.35-.88.82-2,1.18-2.93l1.24-3.11,1.3-3.25,1.33-3.32,1.34-3.35,1.33-3.31c.38-1,.9-2.27,1.29-3.24Z"/><path class="cls-51" d="M3452.23,1998.66a2.69,2.69,0,0,0,.58.46l-90.09,225.1L3342,2275.89c-3,7.61-7.1,17.76-10.15,25.36s-7,17.42-10,24.89c-2.91,7.29-6.8,17-9.72,24.3l-9.44,23.58c-2.74,6.83-7.09,15.69-9.11,22.77a2.69,2.69,0,0,1-.58-.46c-.09-.1-.12-.18-.09-.25l159.16-397.67C3452.11,1998.47,3452.14,1998.56,3452.23,1998.66Z"/><path class="cls-48" d="M3302,2401.71,3461.16,2004c.05-.12.34-.14.88,0l-159.16,397.67C3302.34,2401.57,3302.05,2401.59,3302,2401.71Z"/><path class="cls-48" d="M3293,2396.08l159.17-397.67c.05-.13.33-.16.84-.06L3293.82,2396C3293.31,2395.92,3293,2396,3293,2396.08Z"/><polygon class="cls-52" points="3267.78 2381.19 3426.95 1983.52 3474.19 1992.38 3315.03 2390.05 3267.78 2381.19"/><path class="cls-51" d="M3284.59,2391.14l159.17-397.67a12.17,12.17,0,0,0,3.6,1.41l-159.17,397.67A12.38,12.38,0,0,1,3284.59,2391.14Z"/><path class="cls-51" d="M3481.11,2001,3322,2398.67c0,.12-.35.15-.87,0l159.16-397.67C3480.77,2001.15,3481.07,2001.12,3481.11,2001Z"/><polygon class="cls-50" points="3282.32 2318.85 3441.49 1921.17 3422.4 1983.69 3263.24 2381.36 3282.32 2318.85"/><path class="cls-48" d="M3260,2387.67,3419.18,1990a13.62,13.62,0,0,1,4,1.58L3264,2389.25A13.85,13.85,0,0,0,3260,2387.67Z"/><path class="cls-48" d="M3205.52,2369.47l159.16-397.68c.05-.12.35-.15.87-.06L3206.39,2369.4C3205.87,2369.31,3205.57,2369.34,3205.52,2369.47Z"/><path class="cls-48" d="M3423.76,1992.18,3264.6,2389.85s0-.12-.07-.2L3423.69,1992C3423.76,1992.06,3423.78,1992.13,3423.76,1992.18Z"/><path class="cls-48" d="M3414.19,1986.29,3255,2384c0-.06,0-.14-.09-.23l159.17-397.67A.24.24,0,0,1,3414.19,1986.29Z"/><path class="cls-48" d="M3254.36,2383.28l159.17-397.67a2.42,2.42,0,0,1,.58.45l-159.17,397.67A2.27,2.27,0,0,0,3254.36,2383.28Z"/><path class="cls-48" d="M3250.59,2381.8l159.17-397.67a13.46,13.46,0,0,1,3.77,1.48l-159.17,397.67A13.34,13.34,0,0,0,3250.59,2381.8Z"/><path class="cls-48" d="M3404.73,1980.39l-159.17,397.67c0-.06,0-.14-.08-.24l159.16-397.67Q3404.76,1980.3,3404.73,1980.39Z"/><path class="cls-48" d="M3244.94,2377.4l159.16-397.67a2.29,2.29,0,0,1,.54.42l-159.16,397.67A2.29,2.29,0,0,0,3244.94,2377.4Z"/><path class="cls-48" d="M3241.09,2375.91l159.17-397.67a13.37,13.37,0,0,1,3.84,1.49L3244.94,2377.4A13.42,13.42,0,0,0,3241.09,2375.91Z"/><path class="cls-51" d="M3283.91,2390.45l159.16-397.67c0,.06,0,.13.08.23a2.54,2.54,0,0,0,.61.46l-159.17,397.67a2.44,2.44,0,0,1-.6-.46C3283.91,2390.59,3283.88,2390.51,3283.91,2390.45Z"/><path class="cls-48" d="M3283.9,2390.45l159.17-397.67c0-.12.31-.16.81-.06l-159.17,397.67C3284.22,2390.3,3284,2390.33,3283.9,2390.45Z"/><path class="cls-51" d="M3507.31,2017.86c.54.1.83.07.88,0L3349,2415.48c-.05.12-.34.15-.87.05Z"/><path class="cls-51" d="M3499.13,2012.19,3340,2409.86c0,.12-.33.15-.85.06l159.16-397.67C3498.8,2012.34,3499.08,2012.31,3499.13,2012.19Z"/><path class="cls-51" d="M3490.11,2006.59,3331,2404.26c0,.11-.34.14-.86,0l159.16-397.67C3489.78,2006.73,3490.06,2006.7,3490.11,2006.59Z"/><polygon class="cls-51" points="3318.84 2391.78 3478.01 1994.11 3699.68 2132.03 3540.51 2529.7 3318.84 2391.78"/><path class="cls-48" d="M3508.18,2017.8,3349,2415.47s0-.13-.09-.22l159.17-397.67C3508.18,2017.67,3508.2,2017.74,3508.18,2017.8Z"/><path class="cls-48" d="M3348.34,2414.79l159.17-397.67a2.8,2.8,0,0,1,.59.46l-159.17,397.67A2.35,2.35,0,0,0,3348.34,2414.79Z"/><path class="cls-48" d="M3344.7,2413.4l159.16-397.67a12.34,12.34,0,0,1,3.65,1.39l-159.17,397.67A12.17,12.17,0,0,0,3344.7,2413.4Z"/><path class="cls-48" d="M3499.12,2012.19,3340,2409.86c0-.06,0-.13-.07-.22L3499,2012C3499.11,2012.06,3499.14,2012.13,3499.12,2012.19Z"/><path class="cls-48" d="M3339.37,2409.25l159.17-397.67a2.16,2.16,0,0,1,.5.39l-159.16,397.67A2.26,2.26,0,0,0,3339.37,2409.25Z"/><path class="cls-48" d="M3335.77,2407.83l159.16-397.67a12.64,12.64,0,0,1,3.61,1.42l-159.17,397.67A12.58,12.58,0,0,0,3335.77,2407.83Z"/><path class="cls-48" d="M3490.1,2006.58l-159.16,397.67c0-.05,0-.11-.07-.19L3490,2006.39C3490.1,2006.47,3490.12,2006.53,3490.1,2006.58Z"/><path class="cls-48" d="M3330.37,2403.67,3489.53,2006a2,2,0,0,1,.5.39l-159.16,397.67A2.16,2.16,0,0,0,3330.37,2403.67Z"/><path class="cls-48" d="M3326.71,2402.18l159.16-397.67a12.6,12.6,0,0,1,3.66,1.49l-159.16,397.67A12.6,12.6,0,0,0,3326.71,2402.18Z"/><path class="cls-48" d="M3481.11,2001l-159.17,397.67s0-.12-.07-.21L3481,2000.78C3481.1,2000.86,3481.13,2000.94,3481.11,2001Z"/><path class="cls-48" d="M3317.67,2396.57l159.17-397.67a13.64,13.64,0,0,1,3.63,1.45,2.31,2.31,0,0,1,.56.43l-159.16,397.67a2.53,2.53,0,0,0-.56-.43A13.57,13.57,0,0,0,3317.67,2396.57Z"/><polygon class="cls-50" points="3207.94 2295.73 3367.1 1898.06 3347.56 1961.97 3188.39 2359.64 3207.94 2295.73"/><polygon class="cls-52" points="3286.5 2319.87 3445.66 1922.2 3445.44 1922.93 3286.27 2320.61 3286.5 2319.87"/><polygon class="cls-48" points="3286.27 2320.61 3445.44 1922.93 3444.75 1924.97 3285.59 2322.64 3286.27 2320.61"/><polygon class="cls-50" points="3286.51 2319.88 3445.67 1922.21 3445.46 1922.94 3286.29 2320.61 3286.51 2319.88"/><polygon class="cls-48" points="3286.27 2320.61 3445.44 1922.93 3448.07 1923.43 3288.91 2321.1 3286.27 2320.61"/><polygon class="cls-53" points="3288.91 2321.1 3286.29 2320.61 3286.5 2319.88 3286.57 2319.64 3288.91 2321.1"/><polygon class="cls-50" points="3286.37 2320.36 3286.5 2319.89 3286.33 2320.44 3286.37 2320.36"/><polygon class="cls-48" points="3333.38 2329.44 3315.03 2390.05 3267.78 2381.19 3286.27 2320.61 3285.59 2322.64 3286.27 2320.61 3288.91 2321.1 3333.38 2329.44"/><polygon class="cls-52" points="3288.9 2321.1 3291.63 2321.62 3426.94 1983.53 3436.35 1952.67 3288.9 2321.1"/><path class="cls-48" d="M3291.1,2321.51l.64.13L3423.68,1992a1.76,1.76,0,0,0-.52-.4Zm-23.33,59.69,1.8-5.87-5.58,13.93a2.23,2.23,0,0,1,.53.4l3.37-8.44Z"/><path class="cls-51" d="M3318.85,2391.78l221.66,137.92-55.6-10.43-8.23-5.12-213.44-132.79Zm-30.66.77,32.89,6.17c.75.14,1,0,.79-.27a2.31,2.31,0,0,0-.56-.43,13.51,13.51,0,0,0-3.63-1.45l-33-6.18c-.73-.14-1,0-.73.29a2.44,2.44,0,0,0,.6.46,12.38,12.38,0,0,0,3.6,1.41Zm9,5.58,32.9,6.17c.75.14,1,0,.78-.24a1.83,1.83,0,0,0-.5-.38,12.14,12.14,0,0,0-3.66-1.5l-32.89-6.16c-.75-.14-1,0-.75.31a2.55,2.55,0,0,0,.59.46,12.4,12.4,0,0,0,3.53,1.34Zm18.14,11.25,32.82,6.15c.78.15,1,0,.79-.28a2.52,2.52,0,0,0-.59-.45,12.19,12.19,0,0,0-3.64-1.4l-32.83-6.15c-.72-.14-1,0-.76.23a2.52,2.52,0,0,0,.58.45,12.49,12.49,0,0,0,3.63,1.45Zm-9.1-5.63,32.89,6.17c.75.14,1,0,.77-.27a2.21,2.21,0,0,0-.51-.39,12.47,12.47,0,0,0-3.6-1.42l-32.89-6.17c-.77-.14-1,0-.81.24a3.15,3.15,0,0,0,.65.48,12,12,0,0,0,3.5,1.36Z"/><path class="cls-48" d="M3321.87,2398.45c.24.29,0,.41-.79.27l-32.89-6.17a12.62,12.62,0,0,1-3.61-1.41,2.6,2.6,0,0,1-.59-.46c-.25-.29,0-.43.72-.29l33,6.18a13.57,13.57,0,0,1,3.64,1.45A2.53,2.53,0,0,1,3321.87,2398.45Z"/><path class="cls-51" d="M3296.37,2387.58l.38-.95-5.77-1.08-.37.95Zm18.66,2.48-7-1.31-.37.95,11.17,2.09,156.74-391.6-4.2-.79Zm-9.79,5.7,15.84,3,.26-.66,0,0a14,14,0,0,0-3.64-1.46l-11.87-2.21Zm-.8-.16.56-1.4-9.73-1.82-.57,1.4Zm2.43-6,.37-1-9.73-1.81-.37.94Zm-12.36,2.69-5.77-1.09-.56,1.41,5.77,1.08Z"/><path class="cls-48" d="M3471.94,1998,3315,2390.06l-7-1.31-.37.95,11.17,2.09,157.3-393Zm-170.5,389.52-.38.95,5.81,1.09.37-1Zm-10.83-1,5.76,1.08.38-.95-5.77-1.08Zm6.9.28-.37.94.12,0c.13-.33.25-.62.39-.95Z"/><path class="cls-51" d="M3303.79,2399.37l.14,0,.55-1.37-.13,0Zm-1.71,2.54a2.09,2.09,0,0,0,.65.48l.27-.68-.12,0C3302.12,2401.54,3301.85,2401.64,3302.08,2401.91Z"/><path class="cls-48" d="M3330.87,2404.06c.23.27,0,.38-.79.24l-32.89-6.17a12.77,12.77,0,0,1-3.54-1.34,2.55,2.55,0,0,1-.59-.46c-.26-.32,0-.45.76-.31l32.89,6.16a12.6,12.6,0,0,1,3.66,1.49A2.16,2.16,0,0,1,3330.87,2404.06Z"/><path class="cls-51" d="M3303.55,2397.84l-5.82-1.08-.55,1.38,5.81,1.09Zm9.91,3.35.56-1.38-9.67-1.81-.56,1.37Zm1.33-1.23-.55,1.38,15.84,3,.25-.64a12.48,12.48,0,0,0-3.63-1.47Z"/><path class="cls-51" d="M3312.78,2405h.08c.18-.46.36-.89.55-1.35h-.1Zm-1.67,2.5a2.49,2.49,0,0,0,.58.44c.09-.22.17-.45.26-.67h-.08C3311.15,2407.12,3310.89,2407.22,3311.11,2407.49Z"/><path class="cls-48" d="M3339.88,2409.64c.23.28,0,.41-.77.27l-32.89-6.16a12.17,12.17,0,0,1-3.5-1.37,2.55,2.55,0,0,1-.65-.48c-.23-.27,0-.38.81-.23l32.89,6.16a12.58,12.58,0,0,1,3.6,1.42A2.26,2.26,0,0,1,3339.88,2409.64Z"/><polygon class="cls-48" points="3333.38 2329.44 3492.54 1931.77 3474.19 1992.38 3315.03 2390.05 3333.38 2329.44"/><polygon class="cls-52" points="3337.93 2329.27 3497.09 1931.6 3478.01 1994.11 3318.84 2391.78 3337.93 2329.27"/><path class="cls-51" d="M3311.69,2407.93a12.27,12.27,0,0,0,3.64,1.45l.55-1.37-3.93-.75Z"/><path class="cls-48" d="M3348.93,2415.25c.25.29,0,.42-.79.28l-32.82-6.15a12.34,12.34,0,0,1-3.63-1.46,2.29,2.29,0,0,1-.58-.44c-.23-.27,0-.37.77-.23l32.82,6.15a12.17,12.17,0,0,1,3.64,1.39A2.35,2.35,0,0,1,3348.93,2415.25Z"/><path class="cls-51" d="M3348.34,2414.8a13.22,13.22,0,0,0-1.39-.53,12.34,12.34,0,0,0-2.24-.85l-28.83-5.41-.55,1.37,32.81,6.16.28-.68-.07-.06Z"/><path class="cls-51" d="M3311.69,2407.93l.26-.67Z"/><path class="cls-51" d="M3333.3,2344.4,3315,2390.06l-28.08-5.27-.38,1,32.27,6L3478,1994.11l-159.16,397.67Zm-47.08,40.25-18.17-3.41-.39,1,18.18,3.41Z"/><path class="cls-49" d="M3266.92,2383.65l-2.4,6a2.23,2.23,0,0,0-.53-.4l2.38-6-.06,0-2.65,6.63c.57.1.89.08.94,0l2.44-6.13Zm1.13-2.41-.16,0-.38,1,.15,0Zm-1.18.81,2.7-6.72.23-.74-3,7.45ZM3291,2321.5h.06l131.79-329.27h-.07Zm132.56-329.29-131.86,329.43.15,0,131.87-329.47S3423.62,1992.19,3423.6,1992.21Z"/><path class="cls-48" d="M3264.53,2389.65c.23.28-.07.4-.87.25l-34.7-6.5a14.17,14.17,0,0,1-3.71-1.41,3,3,0,0,1-.63-.5c-.27-.32,0-.46.77-.31l34.63,6.49a13.85,13.85,0,0,1,4,1.58A2.39,2.39,0,0,1,3264.53,2389.65Z"/><path class="cls-49" d="M3260,2387.68l5.47-13.66,16.84-55.17,131.4-328.31-1.14-.22L3255,2384c-.05.13-.35.15-.87.06l-16.68-3.13-1.52,3.83,27.7,5.19.27-.68A14.18,14.18,0,0,0,3260,2387.68Zm-23.38-6.95-6.13-1.15-1.53,3.82,6.13,1.15Z"/><path class="cls-48" d="M3282.32,2318.85l132-329.75-1.16-.22L3255,2384c-.05.13-.35.15-.87.06l-16.68-3.13-.95,2.39,23.48,4.4,5.47-13.66Zm-45.69,61.88-6.13-1.15-1,2.38,6.13,1.16Z"/><polygon class="cls-48" points="3257.69 2305.06 3416.86 1907.38 3397.38 1971.31 3238.22 2368.98 3257.69 2305.06"/><polygon class="cls-50" points="3262.42 2304.89 3421.58 1907.22 3401.43 1973.12 3242.27 2370.79 3262.42 2304.89"/><path class="cls-49" d="M3236,2384.72l-1,2.41c-.58-.11-.89-.08-.93,0s0,.13.09.22a2.07,2.07,0,0,0,.58.45c.17.1.38.22.61.33l1.33-3.34Z"/><path class="cls-49" d="M3242.28,2370.79l233.77,145.43-58.67-11-233.71-145.41Zm-3.78,18.53,34.7,6.51c.78.15,1.07,0,.82-.27a2.42,2.42,0,0,0-.62-.47,13.71,13.71,0,0,0-3.78-1.48l-34.63-6.49c-.84-.16-1.1,0-.85.27a2.23,2.23,0,0,0,.58.45,13.75,13.75,0,0,0,3.78,1.48Zm-28.53-17.7,34.78,6.52c.7.13,1,0,.73-.32a2.16,2.16,0,0,0-.53-.41,13.45,13.45,0,0,0-3.85-1.5l-34.7-6.5c-.77-.14-1.05,0-.78.3a2.46,2.46,0,0,0,.51.42,13.92,13.92,0,0,0,3.84,1.49Zm19,11.78,34.7,6.5c.8.15,1.1,0,.87-.24a2.31,2.31,0,0,0-.54-.41,13.65,13.65,0,0,0-4-1.57l-34.62-6.5c-.79-.14-1,0-.77.31a2.57,2.57,0,0,0,.62.5,14,14,0,0,0,3.72,1.41Zm-9.43-5.88,34.63,6.49c.75.14,1,0,.78-.28a3.08,3.08,0,0,0-.58-.45,13.77,13.77,0,0,0-3.77-1.48l-34.7-6.5c-.79-.15-1,0-.79.28a2.47,2.47,0,0,0,.58.45,12.6,12.6,0,0,0,3.85,1.49Z"/><path class="cls-48" d="M3269.62,2393.61l-34.64-6.48c-.83-.16-1.11,0-.85.26a2.06,2.06,0,0,0,.58.46,14,14,0,0,0,3.77,1.47l34.7,6.51c.78.15,1.08,0,.83-.27a2.23,2.23,0,0,0-.62-.46A14.25,14.25,0,0,0,3269.62,2393.61Z"/><path class="cls-49" d="M3275.77,2389.16l-.79,2,.08.05.79-2Zm-6.15,4.46-30.55-5.72-.58,1.44,34.7,6.5.28-.68-.08-.06A13.9,13.9,0,0,0,3269.62,2393.62Zm-2.58-9.89-.79,2,5.23,3.25.79-2Z"/><polygon class="cls-48" points="3267.04 2383.73 3266.25 2385.72 3271.48 2388.97 3272.27 2386.98 3267.04 2383.73"/><path class="cls-49" d="M3235,2387.14l-.3.71.64.25.33-.83Zm.7,1.19a13.51,13.51,0,0,0,2.77,1c-1.75-.69-2.63-1-3.13-1.24,0,0,0,0,0,.05Z"/><path class="cls-49" d="M3476.68,2514.16l-200.14-124.52-.8,2,200.31,124.6.79-2Zm-76.43-535.91a13,13,0,0,1,3.85,1.49,2.21,2.21,0,0,1,.53.41c.08.11.12.19.1.24l-157.5,393.5,5.22,3.25,157.29-393a13.9,13.9,0,0,1,3.78,1.48,2.45,2.45,0,0,1,.58.46c.08.09.1.17.08.22l-157.47,393.49,5.18,3.22,3.59-9,16.84-55.17,134.54-336.13-15.43-9.6L3242.28,2370.8l.68.43Zm-128,408.73-5.23-3.25-.79,2,5.23,3.25Z"/><polygon class="cls-50" points="3476.68 2514.16 3476.05 2516.22 3476.84 2514.26 3476.68 2514.16"/><polygon class="cls-52" points="3559.6 2467.18 3718.76 2069.51 3699.67 2132.02 3540.51 2529.69 3559.6 2467.18"/><polygon class="cls-48" points="3207.87 2295.72 3367.03 1898.05 3369.88 1898.58 3210.71 2296.25 3207.87 2295.72"/><polygon class="cls-50" points="3208.28 2294.74 3367.44 1897.07 3367.1 1898.06 3207.94 2295.73 3208.28 2294.74"/><polygon class="cls-54" points="3210.71 2296.25 3207.95 2295.73 3208.28 2294.74 3210.71 2296.25"/><polygon class="cls-54" points="3208.28 2294.74 3367.44 1897.07 3369.88 1898.58 3210.71 2296.25 3208.28 2294.74"/><polygon class="cls-50" points="3203.82 2293.91 3362.98 1896.23 3367.44 1897.07 3208.28 2294.74 3203.82 2293.91"/><polygon class="cls-50" points="3262.43 2304.9 3421.59 1907.22 3445.1 1921.85 3285.94 2319.52 3262.43 2304.9"/><polygon class="cls-52" points="3282.32 2318.84 3441.48 1921.17 3445.1 1921.85 3285.94 2319.52 3282.32 2318.84"/><polygon class="cls-52" points="3285.94 2319.52 3445.1 1921.85 3445.73 1921.97 3286.57 2319.64 3285.94 2319.52"/><polygon class="cls-52" points="3286.57 2319.64 3445.73 1921.97 3445.66 1922.2 3286.5 2319.87 3286.57 2319.64"/><polygon class="cls-53" points="3286.57 2319.64 3445.73 1921.97 3448.07 1923.43 3288.91 2321.1 3286.57 2319.64"/><polygon class="cls-50" points="3257.69 2305.06 3416.86 1907.38 3416.3 1909.23 3257.14 2306.9 3257.69 2305.06"/><polygon class="cls-48" points="3257.69 2305.06 3416.86 1907.38 3416.3 1909.23 3257.14 2306.9 3257.69 2305.06"/><polygon class="cls-50" points="3262.42 2304.89 3242.27 2370.79 3183.66 2359.8 3203.82 2293.91 3208.28 2294.74 3207.94 2295.73 3188.39 2359.64 3238.22 2368.98 3257.69 2305.06 3257.14 2306.9 3257.69 2305.06 3258.03 2304.07 3262.42 2304.89"/><polygon class="cls-48" points="3257.69 2305.06 3257.14 2306.9 3257.69 2305.06 3238.22 2368.98 3188.39 2359.64 3207.87 2295.72 3210.71 2296.25 3257.69 2305.06"/><polygon class="cls-48" points="3210.71 2296.25 3369.88 1898.58 3416.86 1907.38 3257.69 2305.06 3210.71 2296.25"/><polygon class="cls-52" points="3337.93 2329.27 3318.84 2391.78 3263.23 2381.36 3282.32 2318.84 3285.94 2319.52 3286.57 2319.64 3286.5 2319.87 3286.27 2320.61 3285.59 2322.64 3286.27 2320.61 3267.78 2381.19 3315.03 2390.05 3333.52 2329.46 3333.75 2328.49 3337.93 2329.27"/><polygon class="cls-50" points="3476.68 2514.15 3476.05 2516.22 3242.28 2370.79 3262.43 2304.9 3285.94 2319.52 3282.32 2318.85 3263.24 2381.36 3476.68 2514.15"/><polygon class="cls-50" points="3258.03 2304.07 3417.19 1906.4 3421.58 1907.22 3262.42 2304.89 3258.03 2304.07"/><polygon class="cls-48" points="3288.91 2321.1 3448.07 1923.43 3492.54 1931.77 3333.38 2329.44 3288.91 2321.1"/><polygon class="cls-52" points="3333.75 2328.49 3492.91 1930.82 3497.09 1931.6 3337.93 2329.27 3333.75 2328.49"/><polygon class="cls-52" points="3337.93 2329.27 3497.09 1931.6 3718.76 2069.51 3559.6 2467.18 3337.93 2329.27"/><polygon class="cls-52" points="3559.6 2467.18 3540.51 2529.69 3318.84 2391.78 3337.93 2329.27 3559.6 2467.18"/></g><path class="cls-11" d="M3624.4,1646.45c-8.54-69.68-96.28-33.61-96.28-33.61s-66.48,14.58-63.89,80.78,38.06,173.85,29.6,204.38c-26.52,111.1,6.76,297.38-9.92,417-2.51,17.85-73.78,30-86.54,72.92-17.93,48.62-40,59.36-33.48,79.28,5.06,15.47,50.34-26,69.37-43.17,2.84,14.9-32.22,69.45-13.76,90.14,18.46,20.85,105.38,44.12,124.82,13.31s7.16-133,22.27-188.43c49.07-180,101.86-252,69.59-442.37C3633.23,1833.38,3633,1716.13,3624.4,1646.45Z"/><path class="cls-6" d="M3472.33,1285.34c-89.56,27.12-62.15,148.34-62.15,148.34s36.48,272.93,39.88,305.69c6.4,58.14,189,29.19,184-30.21s-24.82-298.55-24.82-298.55S3590.84,1249.54,3472.33,1285.34Z"/><polygon class="cls-19" points="3850.8 2700 0 2700 0 1865.77 1202.94 1171.26 3850.8 2700"/><path class="cls-2" d="M1282,2309a39,39,0,0,1-.92,6.67,42.52,42.52,0,0,1-2,6.51,48.29,48.29,0,0,1-3.27,6.56,56,56,0,0,1-4.87,6.85,66.78,66.78,0,0,1-7.41,7.6,90.69,90.69,0,0,1-15,10.56l-1.45.82a132.77,132.77,0,0,1-25.82,10.62,169.47,169.47,0,0,1-22.2,5c-4.9.76-9.89,1.33-14.92,1.71q-6.43.48-12.94.55c-4,0-8,0-11.94-.23s-7.67-.49-11.47-.89-7.57-.92-11.3-1.54q-5.84-1-11.52-2.29-6.15-1.44-12.08-3.28a148.74,148.74,0,0,1-14-5.12,125.16,125.16,0,0,1-16.62-8.47c-22.67-13.81-33.72-31.51-33.25-48.9l-.61,22.63c-.47,17.38,10.59,35.08,33.25,48.9a126.33,126.33,0,0,0,16.62,8.46q6.78,2.88,14,5.13c4,1.22,8,2.32,12.09,3.27,3.78.88,7.62,1.63,11.51,2.29q5.6.93,11.3,1.54t11.47.89c4,.19,8,.28,11.94.23q6.49-.06,13-.55c5-.38,10-1,14.92-1.71a168.08,168.08,0,0,0,22.19-5,131,131,0,0,0,25.82-10.61l1.45-.81a90.3,90.3,0,0,0,15-10.57,66.92,66.92,0,0,0,7.42-7.6,54.06,54.06,0,0,0,4.85-6.86,46.4,46.4,0,0,0,3.27-6.54,41.71,41.71,0,0,0,2-6.53,39.69,39.69,0,0,0,.93-6.66c0-.34,0-.68,0-1l.61-22.63C1282,2308.27,1282,2308.61,1282,2309Z"/><path class="cls-2" d="M1248.77,2259c45,27.47,44.25,70.22-1.76,95.5s-119.81,23.5-164.85-4-44.25-70.22,1.76-95.49S1203.74,2231.56,1248.77,2259Z"/><path class="cls-28" d="M1247,2354.53c46-25.25,46.8-67.93,1.92-95.41-42.23-11.4-93.18-7.82-128.12,11.37-46,25.25-46.79,67.93-1.9,95.4C1161.13,2377.3,1212.07,2373.72,1247,2354.53Z"/><path class="cls-21" d="M1247.85,2376.34a90.3,90.3,0,0,0,15-10.57,66.92,66.92,0,0,0,7.42-7.6,54.06,54.06,0,0,0,4.85-6.86,46.4,46.4,0,0,0,3.27-6.54,41.71,41.71,0,0,0,2-6.53,39.69,39.69,0,0,0,.93-6.66c0-.34,0-.68,0-1l.61-22.63c0,.34,0,.68,0,1a39,39,0,0,1-.92,6.67,42.52,42.52,0,0,1-2,6.51,48.29,48.29,0,0,1-3.27,6.56,56,56,0,0,1-4.87,6.85,66.78,66.78,0,0,1-7.41,7.6,90.69,90.69,0,0,1-15,10.56l-1.45.82a128.61,128.61,0,0,1-21.11,9.09V2386a127.55,127.55,0,0,0,20.5-8.89Z"/><path class="cls-29" d="M1082.16,2350.55c-22.67-13.81-33.72-31.51-33.25-48.9l-.61,22.63c-.47,17.38,10.59,35.08,33.25,48.9a126.33,126.33,0,0,0,16.62,8.46q6.78,2.88,14,5.13l.51.15v-22.81c-4.79-1.49-9.45-3.19-13.94-5.09A125.16,125.16,0,0,1,1082.16,2350.55Z"/><path class="cls-2" d="M1081.52,2321.28c-2.86,14.26-13.5,28.09-31.93,39.18-.47.29-.95.57-1.43.85a134,134,0,0,1-25.76,11.33h0c-22.7,7.36-48.75,10-73.88,7.93-24.32-2-47.79-8.42-66.55-19.25-23.17-13.38-34.74-30.94-34.69-48.47l-.15,53.33c0,17.53,11.52,35.09,34.7,48.46,18.75,10.84,42.22,17.26,66.54,19.26,25.14,2.07,51.18-.58,73.88-7.93a133.49,133.49,0,0,0,25.76-11.33l1.44-.85c18.43-11.08,29.08-24.92,31.93-39.18a40.09,40.09,0,0,0,.79-7.77l.15-53.33A40,40,0,0,1,1081.52,2321.28Z"/><path class="cls-55" d="M1047.62,2265.05c46.05,26.58,46.28,69.67.54,96.26s-120.15,26.59-166.2,0-46.28-69.68-.54-96.27S1001.58,2238.47,1047.62,2265.05Z"/><path class="cls-21" d="M1042.61,2253.81c43.26,27.43,43.48,71.9.5,99.34s-112.88,27.43-156.14,0-43.48-71.91-.51-99.34S999.36,2226.38,1042.61,2253.81Z"/><path class="cls-21" d="M1042.61,2253.81c43.26,27.43,43.48,71.9.5,99.34s-112.88,27.43-156.14,0-43.48-71.91-.51-99.34S999.36,2226.38,1042.61,2253.81Z"/><path class="cls-21" d="M1042.61,2253.81c43.26,27.43,43.48,71.9.5,99.34s-112.88,27.43-156.14,0-43.48-71.91-.51-99.34S999.36,2226.38,1042.61,2253.81Z"/><path class="cls-21" d="M1042.61,2253.81c43.26,27.43,43.48,71.9.5,99.34s-112.88,27.43-156.14,0-43.48-71.91-.51-99.34S999.36,2226.38,1042.61,2253.81Z"/><path class="cls-21" d="M1042.61,2253.81c43.26,27.43,43.48,71.9.5,99.34s-112.88,27.43-156.14,0-43.48-71.91-.51-99.34S999.36,2226.38,1042.61,2253.81Z"/><path class="cls-2" d="M1042.61,2253.81c43.26,27.43,43.48,71.9.5,99.34s-112.88,27.43-156.14,0-43.48-71.91-.51-99.34S999.36,2226.38,1042.61,2253.81Z"/><path class="cls-21" d="M1048,2414.64l1.44-.85c18.43-11.08,29.08-24.92,31.93-39.18a40.09,40.09,0,0,0,.79-7.77l.15-53.33a40,40,0,0,1-.79,7.77c-2.86,14.26-13.5,28.09-31.93,39.18-.47.29-.95.57-1.43.85a134,134,0,0,1-25.76,11.33h0c-3.37,1.09-6.84,2.05-10.34,2.93v53.29c3.45-.87,6.87-1.82,10.19-2.89A133.49,133.49,0,0,0,1048,2414.64Z"/><path class="cls-29" d="M847.27,2312.85l-.15,53.33c0,17.53,11.52,35.09,34.7,48.46A131.53,131.53,0,0,0,905,2425.05v-53.38a131.75,131.75,0,0,1-23-10.35C858.79,2347.94,847.22,2330.38,847.27,2312.85Z"/><path class="cls-21" d="M1042.61,2253.81a126.36,126.36,0,0,0-34-14.71V2368a125.83,125.83,0,0,0,34.5-14.89C1086.09,2325.71,1085.87,2281.24,1042.61,2253.81Z"/><path class="cls-29" d="M887,2353.15a117.65,117.65,0,0,0,18,9.25V2249.51H893.87c-2.54,1.35-5,2.78-7.41,4.3C843.49,2281.24,843.72,2325.72,887,2353.15Z"/><path class="cls-55" d="M1042.61,2251.74c43.26,24.67,43.48,64.66.5,89.33s-112.88,24.68-156.14,0-43.48-64.67-.51-89.34S999.36,2227.08,1042.61,2251.74Z"/><path class="cls-2" d="M1042.61,2242.71c43.26,25,43.48,65.46.5,90.44s-112.88,25-156.14,0-43.48-65.48-.51-90.45S999.36,2217.74,1042.61,2242.71Z"/><path class="cls-21" d="M1036.12,2246.81c39.64,22.3,39.84,58.46.45,80.77s-103.45,22.31-143.1,0-39.85-58.47-.46-80.77S996.47,2224.5,1036.12,2246.81Z"/><path class="cls-28" d="M893.47,2327.58c39.65,22.31,103.71,22.3,143.1,0,18.43-10.44,28.19-23.91,29.3-37.57-1.06-13.84-11-27.51-29.75-38.08-39.65-22.31-103.72-22.31-143.11,0-18.43,10.43-28.19,23.9-29.3,37.57C864.77,2303.34,874.69,2317,893.47,2327.58Z"/><path class="cls-55" d="M908.58,2254.48c2,1.14,2,3,0,4.1a8.15,8.15,0,0,1-7.27,0c-2-1.13-2-3,0-4.1A8.22,8.22,0,0,1,908.58,2254.48Z"/><path class="cls-55" d="M969.68,2281.05c2,1.13,2,3,0,4.1a8.15,8.15,0,0,1-7.27,0c-2-1.13-2-3,0-4.1A8.18,8.18,0,0,1,969.68,2281.05Z"/><path class="cls-55" d="M903.44,2278.89c2,1.13,2,3,0,4.1a8.22,8.22,0,0,1-7.27,0c-2-1.13-2-3,0-4.1A8.15,8.15,0,0,1,903.44,2278.89Z"/><path class="cls-55" d="M935.28,2293.16c2,1.14,2,3,0,4.11a8.24,8.24,0,0,1-7.28,0c-2-1.13-2-3,0-4.11A8.26,8.26,0,0,1,935.28,2293.16Z"/><path class="cls-55" d="M898.3,2302.27c2,1.14,2,3,0,4.11a8.24,8.24,0,0,1-7.28,0c-2-1.14-2-3,0-4.11A8.24,8.24,0,0,1,898.3,2302.27Z"/><path class="cls-55" d="M959.22,2326.31c2,1.14,2,3,0,4.11a8.22,8.22,0,0,1-7.27,0c-2-1.13-2-3,0-4.11A8.31,8.31,0,0,1,959.22,2326.31Z"/><path class="cls-55" d="M937.2,2270.55c2,1.14,2,3,0,4.11a8.22,8.22,0,0,1-7.27,0c-2-1.13-2-3,0-4.11A8.31,8.31,0,0,1,937.2,2270.55Z"/><path class="cls-55" d="M954.08,2244.55c2,1.14,2,3,0,4.11a8.24,8.24,0,0,1-7.28,0c-2-1.14-2-3,0-4.11A8.18,8.18,0,0,1,954.08,2244.55Z"/><path class="cls-55" d="M1029,2257.38c2,1.14,2,3,0,4.11a8.22,8.22,0,0,1-7.27,0c-2-1.13-2-3,0-4.11A8.24,8.24,0,0,1,1029,2257.38Z"/><path class="cls-55" d="M1034.17,2290.26c2,1.14,2,3,0,4.11a8.22,8.22,0,0,1-7.27,0c-2-1.13-2-3,0-4.11A8.22,8.22,0,0,1,1034.17,2290.26Z"/><path class="cls-55" d="M980.05,2314.05c2,1.13,2,3,0,4.1a8.18,8.18,0,0,1-7.28,0c-2-1.13-2-3,0-4.1A8.24,8.24,0,0,1,980.05,2314.05Z"/><path class="cls-55" d="M998.59,2281.79c2,1.13,2,3,0,4.1a8.18,8.18,0,0,1-7.28,0c-2-1.13-2-3,0-4.1A8.15,8.15,0,0,1,998.59,2281.79Z"/><path class="cls-55" d="M988.31,2257.38c2,1.14,2,3,0,4.11a8.22,8.22,0,0,1-7.27,0c-2-1.13-2-3,0-4.11A8.24,8.24,0,0,1,988.31,2257.38Z"/><path class="cls-55" d="M926.91,2311.15c2,1.13,2,3,0,4.1a8.18,8.18,0,0,1-7.28,0c-2-1.13-2-3,0-4.1A8.15,8.15,0,0,1,926.91,2311.15Z"/><path class="cls-55" d="M1029,2314.05c2,1.13,2,3,0,4.1a8.15,8.15,0,0,1-7.27,0c-2-1.13-2-3,0-4.1A8.24,8.24,0,0,1,1029,2314.05Z"/><path class="cls-56" d="M1174.16,2288.3c46.61,4.27,70.22,42.76,52.73,86s-69.44,74.78-116.06,70.52-70.24-42.76-52.75-86S1127.54,2284,1174.16,2288.3Z"/><path class="cls-57" d="M1169,2279.87c46.13,3.47,69,40.67,51,83.09s-69.93,74-116.07,70.52-69-40.66-51-83.08S1122.9,2276.41,1169,2279.87Z"/><path class="cls-56" d="M1067.84,2326.06s79.92,19.45,115.88,81.77l13.88-10,9.63-13.16s-47.46-78-114.82-81.45C1092.41,2303.22,1075.85,2314.88,1067.84,2326.06Z"/><path class="cls-2" d="M1310.25,1720.5a38.27,38.27,0,0,1-.76,6.63,43.06,43.06,0,0,1-1.86,6.5,48.22,48.22,0,0,1-3.08,6.58,54.31,54.31,0,0,1-4.66,6.9,65.6,65.6,0,0,1-7.16,7.72,90.56,90.56,0,0,1-14.64,10.83c-.47.28-.93.56-1.42.83a129.6,129.6,0,0,1-25.33,11.14,164.64,164.64,0,0,1-21.88,5.45c-4.84.88-9.77,1.56-14.74,2.06q-6.37.63-12.82.85c-3.94.13-7.89.16-11.84,0-3.8-.09-7.61-.3-11.38-.6s-7.53-.73-11.24-1.26q-5.81-.83-11.47-2-6.13-1.28-12-3c-4.82-1.37-9.52-3-14-4.74a125.2,125.2,0,0,1-16.68-8c-22.79-13.15-34.17-30.43-34.11-47.67l-.08,22.44c0,17.24,11.34,34.51,34.13,47.67a125.63,125.63,0,0,0,16.67,8c4.53,1.79,9.23,3.37,14,4.74,3.93,1.13,8,2.11,12.05,3,3.77.79,7.6,1.45,11.46,2s7.47.94,11.24,1.25,7.58.51,11.39.61,7.9.08,11.83-.06q6.45-.21,12.83-.85c5-.49,9.9-1.18,14.74-2a167.14,167.14,0,0,0,21.89-5.45,130.47,130.47,0,0,0,25.33-11.14l1.41-.83a89.47,89.47,0,0,0,14.63-10.84,67.44,67.44,0,0,0,7.18-7.71,54.12,54.12,0,0,0,4.64-6.9,46,46,0,0,0,3.08-6.58,40.71,40.71,0,0,0,1.87-6.51,38.16,38.16,0,0,0,.76-6.63c0-.34,0-.67,0-1l.06-22.44C1310.27,1719.82,1310.26,1720.16,1310.25,1720.5Z"/><path class="cls-26" d="M1276.14,1671.81c45.3,26.14,45.54,68.53.53,94.68s-118.17,26.16-163.47,0-45.52-68.54-.53-94.68S1230.86,1645.66,1276.14,1671.81Z"/><path class="cls-58" d="M1267.74,1676.67c40.63,23.46,40.85,61.5.48,85s-106,23.46-146.67,0-40.85-61.5-.48-85S1227.11,1653.21,1267.74,1676.67Z"/><path class="cls-59" d="M1121.55,1761.63c40.63,23.46,106.3,23.46,146.67,0,19.1-11.1,29.1-25.46,30-40-1.15-14.51-11.32-28.84-30.5-39.91-40.63-23.46-106.3-23.46-146.67,0-19.1,11.1-29.1,25.46-30,40C1092.2,1736.23,1102.36,1750.55,1121.55,1761.63Z"/><path class="cls-60" d="M1268.22,1761.63c19.1-11.1,29.1-25.46,30-40a38.82,38.82,0,0,0-5.29-16.4c-40.85-20.76-103-19.88-141.74,2.65-19.1,11.11-29.1,25.47-30,40a38.74,38.74,0,0,0,5.29,16.39C1167.33,1785,1229.44,1784.16,1268.22,1761.63Z"/><path class="cls-2" d="M1196,1487.41a23.8,23.8,0,0,0-8.5-4.44,37.43,37.43,0,0,0-16-.74c-9.13,1.34-19.78,5.33-31.54,12.17-3.21,1.86-6.43,3.89-9.62,6.07q-3.62,2.46-7.18,5.16a235.46,235.46,0,0,0-34.08,31.88,263.2,263.2,0,0,0-17.85,22.61,235.3,235.3,0,0,0-15.42,25c-7,13.27-12.19,26.5-14.81,38.8-4.29,20.17-1,34.46,7.89,41.81l19.08,15.74c-8.91-7.36-12.19-21.64-7.89-41.82,2.61-12.3,7.78-25.53,14.81-38.79a233.19,233.19,0,0,1,15.41-25,265.3,265.3,0,0,1,17.86-22.61,234.93,234.93,0,0,1,34.07-31.89q3.58-2.7,7.19-5.16,4.79-3.26,9.62-6.08c11.76-6.83,22.4-10.81,31.54-12.15a37.3,37.3,0,0,1,16,.73,24.06,24.06,0,0,1,8.5,4.45Z"/><path class="cls-26" d="M1222.93,1545c-9.67,45.39-54,103.38-99,129.53s-73.64,10.55-64-34.84,54-103.37,99-129.53S1232.59,1499.58,1222.93,1545Z"/><path class="cls-30" d="M1212.4,1551.73c-8.29,38.9-46.26,88.6-84.83,111s-63.12,9-54.84-29.86,46.26-88.61,84.82-111S1220.67,1512.82,1212.4,1551.73Z"/><path class="cls-2" d="M1173.66,1616.79c0-.34,0-.67,0-1l.06-22.44c0,.34,0,.68,0,1s0,.59-.06.88c0,.58-.07,1.16-.12,1.73s-.12,1-.19,1.55-.16,1.15-.27,1.72c0,.25-.07.5-.12.75s-.13.52-.19.78c-.12.57-.25,1.13-.41,1.7s-.28,1-.44,1.53-.35,1.11-.55,1.67c-.1.27-.17.55-.27.83s-.21.46-.3.69c-.23.58-.47,1.16-.73,1.73s-.44,1-.68,1.49-.57,1.14-.88,1.7c-.16.31-.31.64-.5,1s-.2.34-.3.51c-.4.68-.83,1.35-1.26,2-.27.41-.52.83-.81,1.25-.55.81-1.15,1.6-1.76,2.4-.17.24-.33.48-.51.72l-.11.12-.32.39c-.62.77-1.27,1.54-2,2.3-.18.2-.36.41-.55.61-.77.85-1.58,1.7-2.42,2.54l-.39.37c-.47.46-.94.92-1.43,1.37-.21.19-.44.37-.65.57-.53.48-1.09,1-1.65,1.44l-1.63,1.36c-.58.47-1.17.92-1.76,1.38l-1.79,1.34c-.61.45-1.26.89-1.9,1.33s-1.25.87-1.9,1.29-1.37.88-2.07,1.31c-.43.28-.84.55-1.29.82l-1.41.83c-1.73,1-3.51,2-5.32,2.89l-1.58.79c-1.41.69-2.83,1.36-4.28,2-.49.22-1,.45-1.47.66-1.89.82-3.8,1.61-5.76,2.35l-1,.38c-1.65.62-3.32,1.2-5,1.76-.29.1-.57.21-.87.3s-.83.25-1.23.38c-.93.29-1.86.58-2.8.85l-2.42.7c-.94.26-1.89.51-2.84.75s-1.64.43-2.46.62c-1,.24-2,.46-2.94.68-.8.18-1.62.37-2.45.54-1,.21-2,.4-3.05.6-.57.11-1.12.23-1.69.33l-.6.1q-3.25.57-6.54,1l-1,.13c-1.92.25-3.83.48-5.75.68l-.89.1c-.43,0-.86.07-1.29.11-1.25.12-2.49.22-3.75.31h0c6.26,17.07,26.74,19.45,54.46,3.34,15.85-9.21,31.58-23,45.2-38.79,0-.18.09-.36.14-.54A40.19,40.19,0,0,0,1173.66,1616.79Z"/><path class="cls-28" d="M1076.9,1659.1l2.18-.21c1.92-.2,3.83-.43,5.75-.68l1-.13q3.29-.46,6.54-1l2.29-.43c1-.2,2.05-.39,3.05-.6.83-.17,1.65-.36,2.45-.54,1-.22,2-.44,2.94-.68.82-.19,1.64-.4,2.46-.62s1.9-.49,2.84-.75l2.42-.7c.94-.27,1.87-.56,2.8-.85l2.1-.68c1.69-.56,3.36-1.14,5-1.76l1-.38c2-.74,3.87-1.53,5.76-2.35.5-.21,1-.44,1.47-.66,1.45-.65,2.87-1.32,4.28-2l1.58-.79c1.81-.93,3.59-1.88,5.32-2.89.93-.54,1.81-1.09,2.7-1.65.7-.43,1.4-.87,2.07-1.31s1.28-.85,1.9-1.29,1.29-.88,1.9-1.33l1.79-1.34c.59-.46,1.18-.91,1.76-1.38l1.63-1.36c.56-.48,1.12-1,1.65-1.44.71-.64,1.41-1.29,2.08-1.94l.39-.37c.84-.84,1.65-1.69,2.42-2.54.19-.2.37-.41.55-.61.68-.76,1.33-1.53,2-2.3l.32-.39c.22-.28.41-.56.62-.84.61-.8,1.21-1.59,1.76-2.4.29-.42.54-.84.81-1.25.43-.68.86-1.35,1.26-2,.28-.49.54-1,.8-1.47s.6-1.13.88-1.7.47-1,.68-1.49.5-1.15.73-1.73.39-1,.57-1.52.38-1.11.55-1.67.31-1,.44-1.53.29-1.13.41-1.7.22-1,.31-1.53.19-1.14.27-1.72.14-1,.19-1.55.09-1.15.12-1.73c.92-17.87-10.42-35.94-34.05-49.57-2.67-1.55-5.46-3-8.32-4.36q-3.19,2.87-6.33,5.92c2.14,1,4.23,2.14,6.25,3.3,21.4,12.36,31.58,28.77,30.52,45h0v0c0,.78-.14,1.56-.24,2.33,0,.16,0,.31,0,.46q-.17,1.07-.39,2.13c0,.21-.09.44-.13.66-.15.66-.33,1.32-.52,2l-.23.8c-.19.63-.41,1.25-.64,1.87l-.33.89c-.24.6-.49,1.19-.77,1.78-.14.32-.28.65-.43,1l-.86,1.69-.58,1q-.45.79-1,1.59c-.22.37-.45.73-.7,1.09-.33.51-.69,1-1.05,1.53l-.83,1.13c-.38.48-.75,1-1.15,1.44s-.65.78-1,1.17-.79.92-1.21,1.37-.76.8-1.15,1.2-.83.87-1.28,1.29-.87.83-1.31,1.23-.89.82-1.34,1.21-1,.85-1.52,1.27-.89.75-1.37,1.12-1.16.89-1.76,1.33l-1.34,1c-.7.49-1.43,1-2.15,1.46-.41.26-.78.54-1.19.8-1.16.74-2.35,1.46-3.57,2.18-16.87,9.8-38.16,15.49-60.19,17.1a32.31,32.31,0,0,0,1.61,6.82h0C1074.41,1659.32,1075.65,1659.22,1076.9,1659.1Z"/><path class="cls-34" d="M1143.07,1627.61c-.45.38-.89.75-1.37,1.12C1142.18,1628.36,1142.62,1628,1143.07,1627.61Z"/><path class="cls-34" d="M1159.2,1606.62c-.24.6-.49,1.19-.77,1.78C1158.71,1607.81,1159,1607.22,1159.2,1606.62Z"/><path class="cls-34" d="M1160.17,1603.86c-.19.63-.41,1.25-.64,1.87C1159.76,1605.11,1160,1604.49,1160.17,1603.86Z"/><path class="cls-34" d="M1158,1609.36l-.86,1.69Z"/><path class="cls-34" d="M1160.92,1601.08c-.15.66-.33,1.32-.52,2C1160.59,1602.4,1160.77,1601.74,1160.92,1601.08Z"/><path class="cls-34" d="M1139.94,1630.06l-1.34,1Z"/><path class="cls-34" d="M1136.45,1632.51c-.41.26-.78.54-1.19.8C1135.67,1633.05,1136,1632.77,1136.45,1632.51Z"/><path class="cls-34" d="M1156.56,1612.09q-.45.79-1,1.59Q1156.11,1612.89,1156.56,1612.09Z"/><path class="cls-34" d="M1161.44,1598.29q-.17,1.07-.39,2.13Q1161.28,1599.36,1161.44,1598.29Z"/><path class="cls-34" d="M1161.73,1595.5c0,.78-.14,1.56-.24,2.33C1161.59,1597.06,1161.68,1596.28,1161.73,1595.5Z"/><path class="cls-34" d="M1153,1617.43c-.38.48-.75,1-1.15,1.44C1152.27,1618.39,1152.64,1617.91,1153,1617.43Z"/><path class="cls-58" d="M1161.73,1595.48c1.06-16.18-9.12-32.59-30.52-45-2-1.16-4.11-2.25-6.25-3.3q-1.71,1.69-3.41,3.42c3.36,1.52,6.6,3.15,9.69,4.93C1150.43,1566.66,1160.59,1581,1161.73,1595.48Z"/><path class="cls-34" d="M1145.93,1625.13c-.45.41-.89.82-1.34,1.21C1145,1626,1145.48,1625.54,1145.93,1625.13Z"/><path class="cls-34" d="M1154.9,1614.77c-.33.51-.69,1-1.05,1.53C1154.21,1615.79,1154.57,1615.28,1154.9,1614.77Z"/><path class="cls-34" d="M1150.88,1620c-.39.46-.79.92-1.21,1.37C1150.09,1621,1150.48,1620.5,1150.88,1620Z"/><path class="cls-34" d="M1148.52,1622.61c-.42.44-.83.87-1.28,1.29C1147.69,1623.48,1148.1,1623.05,1148.52,1622.61Z"/><path class="cls-59" d="M1135.26,1633.31c.41-.26.78-.54,1.19-.8.72-.48,1.45-1,2.15-1.46l1.34-1c.6-.44,1.19-.88,1.76-1.33s.92-.74,1.37-1.12,1-.84,1.52-1.27.89-.8,1.34-1.21.89-.81,1.31-1.23.86-.85,1.28-1.29.78-.8,1.15-1.2.82-.91,1.21-1.37.67-.78,1-1.17.77-1,1.15-1.44l.83-1.13c.36-.51.72-1,1.05-1.53.25-.36.48-.72.7-1.09q.51-.79,1-1.59l.58-1,.86-1.69c.15-.31.29-.64.43-1,.28-.59.53-1.18.77-1.78l.33-.89c.23-.62.45-1.24.64-1.87l.23-.8c.19-.66.37-1.32.52-2,0-.22.09-.45.13-.66q.23-1.07.39-2.13c0-.15,0-.3,0-.46.1-.77.19-1.55.24-2.33h0c-1.14-14.5-11.3-28.82-30.49-39.9-3.09-1.78-6.33-3.41-9.69-4.93-23.89,24.45-43.2,55.83-48.82,82.24a58.79,58.79,0,0,0-1.23,19.7c22-1.61,43.32-7.3,60.19-17.1C1132.91,1634.77,1134.1,1634.05,1135.26,1633.31Z"/><path class="cls-29" d="M1113.2,1766.49c-22.79-13.15-34.17-30.43-34.11-47.67l-.08,22.44c0,17.24,11.34,34.51,34.13,47.67a125.63,125.63,0,0,0,16.67,8c.49.19,1,.36,1.48.54V1775c-.47-.18-1-.33-1.41-.51A125.2,125.2,0,0,1,1113.2,1766.49Z"/><path class="cls-21" d="M1276.62,1788.93l1.41-.83a89.47,89.47,0,0,0,14.63-10.84,67.44,67.44,0,0,0,7.18-7.71,54.12,54.12,0,0,0,4.64-6.9,46,46,0,0,0,3.08-6.58,40.71,40.71,0,0,0,1.87-6.51,38.16,38.16,0,0,0,.76-6.63c0-.34,0-.67,0-1l.06-22.44c0,.34,0,.68,0,1a38.27,38.27,0,0,1-.76,6.63,43.06,43.06,0,0,1-1.86,6.5,48.22,48.22,0,0,1-3.08,6.58,54.31,54.31,0,0,1-4.66,6.9,65.6,65.6,0,0,1-7.16,7.72,90.56,90.56,0,0,1-14.64,10.83c-.47.28-.93.56-1.42.83a129.6,129.6,0,0,1-25.33,11.14,164.81,164.81,0,0,1-18.5,4.79v22.42a162.33,162.33,0,0,0,18.45-4.77A130.47,130.47,0,0,0,1276.62,1788.93Z"/><path class="cls-21" d="M1190.49,1498a37.3,37.3,0,0,1,16,.73,24.06,24.06,0,0,1,8.5,4.45L1196,1487.41a23.8,23.8,0,0,0-8.5-4.44,37.43,37.43,0,0,0-16-.74c-9.13,1.34-19.78,5.33-31.54,12.17-.76.44-1.52.92-2.28,1.38l20.47,14.88c.3-.17.59-.36.89-.54C1170.71,1503.29,1181.35,1499.31,1190.49,1498Z"/><path class="cls-29" d="M1040.91,1623.92c-4.29,20.17-1,34.46,7.89,41.81l19.08,15.74c-8.91-7.36-12.19-21.64-7.89-41.82,2.61-12.3,7.78-25.53,14.81-38.79.71-1.36,1.49-2.71,2.24-4.06L1055.8,1585l-.08.14C1048.69,1598.39,1043.53,1611.62,1040.91,1623.92Z"/><path class="cls-37" d="M1127.57,1662.75a166.79,166.79,0,0,0,30.2-23.07l36.83-128.38c-9.6-1.33-22.29,2-37,10.57a156.61,156.61,0,0,0-22.71,16.33L1094,1673.59C1103.11,1673.8,1114.54,1670.32,1127.57,1662.75Z"/><path class="cls-37" d="M1212.4,1551.73c2.73-12.86,1.86-22.9-1.9-29.81l-26.53,88C1198,1590.76,1208.49,1570.05,1212.4,1551.73Z"/><path class="cls-26" d="M834.76,1798.23v-27.39H807.1a90,90,0,0,0-54,0H725.75v27.4h0c0,8.07,5.41,16.15,16.09,22.31,21.35,12.33,55.85,12.34,77.08,0C829.53,1814.39,834.8,1806.31,834.76,1798.23Z"/><path class="cls-26" d="M834.76,1798.23v-27.39H807.1c-1.16-.38-2.39-.67-3.59-1v57a65,65,0,0,0,15.42-6.24C829.53,1814.39,834.8,1806.31,834.76,1798.23Z"/><path class="cls-26" d="M725.75,1798.24h0c0,8.07,5.41,16.15,16.09,22.31a60.69,60.69,0,0,0,10.5,4.71v-54.42h-26.6Z"/><path class="cls-61" d="M829.2,1718.22c27.2,15.7,27.35,41.18.32,56.89s-71,15.69-98.2,0-27.36-41.18-.34-56.88S802,1702.5,829.2,1718.22Z"/><path class="cls-29" d="M854.13,1485.06l-135-78-15,333.67h0c-3,13.26,4.38,27.18,22,37.37,30.11,17.38,78.76,17.4,108.67,0,15-8.69,22.39-20.08,22.33-31.47h0Z"/><path class="cls-62" d="M857.1,1746.67l-3-261.61-.78-.45-54.06,305.17c13-1.89,25.33-5.74,35.48-11.64C849.74,1769.45,857.16,1758.06,857.1,1746.67Z"/><path class="cls-2" d="M704.06,1740.77c-2.87,12.82,3.93,26.24,20.34,36.33L762,1439.66l2-6.64-44.9-25.92Z"/><polygon class="cls-21" points="719.1 1407.1 853.35 1484.61 849.7 1500.55 718.38 1423.17 719.1 1407.1"/><polygon class="cls-63" points="2005.73 2255.17 2006.17 2099.21 2020.39 2090.95 2019.93 2246.92 2005.73 2255.17"/><polygon class="cls-64" points="2480.87 2529.49 2005.73 2255.17 2019.93 2246.92 2495.08 2521.24 2480.87 2529.49"/><polygon class="cls-65" points="2495.51 2365.28 2495.08 2521.24 2019.93 2246.92 2020.39 2090.95 2495.51 2365.28"/><polygon class="cls-21" points="2481.31 2373.53 2495.51 2365.28 2495.08 2521.24 2480.87 2529.49 2481.31 2373.53"/><polygon class="cls-21" points="2006.17 2099.21 2020.39 2090.95 2495.51 2365.28 2481.31 2373.53 2006.17 2099.21"/><polygon class="cls-26" points="2481.31 2373.53 2480.87 2529.49 2005.73 2255.17 2006.17 2099.21 2481.31 2373.53"/><polygon class="cls-30" points="2464.95 2387.77 2464.61 2481.57 2022.1 2225.67 2022.44 2131.88 2464.95 2387.77"/><g class="cls-3"><polygon class="cls-21" points="2480.88 2513.09 2480.84 2529.52 2345.98 2607.88 2346.03 2591.45 2480.88 2513.09"/><polygon class="cls-29" points="2346.03 2591.45 2345.98 2607.88 1870.87 2333.57 1870.91 2317.15 2346.03 2591.45"/><polygon class="cls-26" points="2480.88 2513.09 2346.03 2591.45 1870.91 2317.15 2005.76 2238.78 2480.88 2513.09"/></g><polygon class="cls-66" points="1922.45 2318.35 1961.76 2341.2 2053.07 2288.48 2013.77 2265.64 1922.45 2318.35"/><polygon class="cls-67" points="2051.22 2289.44 2013.46 2267.49 1923.91 2319.2 1961.64 2341.14 2051.22 2289.44"/><polygon class="cls-68" points="1964.42 2343.34 2003.74 2366.19 2095.04 2313.47 2055.73 2290.62 1964.42 2343.34"/><polygon class="cls-69" points="2093.18 2314.42 2055.45 2292.47 1965.87 2344.18 2003.63 2366.13 2093.18 2314.42"/><polygon class="cls-70" points="2006.89 2368.57 2046.2 2391.4 2137.51 2338.7 2098.2 2315.84 2006.89 2368.57"/><polygon class="cls-71" points="2135.65 2339.65 2097.91 2317.71 2008.35 2369.41 2046.09 2391.36 2135.65 2339.65"/><polygon class="cls-72" points="2048.87 2393.55 2088.17 2416.39 2179.49 2363.68 2140.17 2340.83 2048.87 2393.55"/><polygon class="cls-73" points="2177.62 2364.63 2139.87 2342.68 2050.31 2394.4 2088.06 2416.33 2177.62 2364.63"/><polygon class="cls-74" points="2091.58 2418.5 2130.89 2441.34 2222.2 2388.63 2182.89 2365.78 2091.58 2418.5"/><polygon class="cls-72" points="2220.35 2389.59 2182.6 2367.63 2093.04 2419.34 2130.79 2441.28 2220.35 2389.59"/><polygon class="cls-75" points="2134.32 2443.06 2173.63 2465.9 2264.94 2413.19 2225.63 2390.34 2134.32 2443.06"/><polygon class="cls-76" points="2263.08 2414.13 2225.33 2392.21 2135.77 2443.91 2173.51 2465.85 2263.08 2414.13"/><polygon class="cls-77" points="2176.29 2468.04 2215.6 2490.89 2306.92 2438.18 2267.6 2415.33 2176.29 2468.04"/><polygon class="cls-59" points="2305.05 2439.12 2267.3 2417.18 2177.76 2468.88 2215.5 2490.83 2305.05 2439.12"/><polygon class="cls-70" points="2218.76 2493.26 2258.07 2516.11 2349.38 2463.4 2310.07 2440.55 2218.76 2493.26"/><polygon class="cls-71" points="2347.51 2464.34 2309.77 2442.4 2220.21 2494.11 2257.95 2516.06 2347.51 2464.34"/><polygon class="cls-72" points="2260.73 2518.24 2300.04 2541.11 2391.35 2488.39 2352.04 2465.53 2260.73 2518.24"/><polygon class="cls-73" points="2389.49 2489.34 2351.75 2467.39 2262.18 2519.09 2299.93 2541.03 2389.49 2489.34"/><polygon class="cls-78" points="2303.45 2543.21 2342.76 2566.04 2434.08 2513.34 2394.76 2490.48 2303.45 2543.21"/><polygon class="cls-79" points="2432.21 2514.29 2394.46 2492.34 2304.91 2544.03 2342.66 2565.99 2432.21 2514.29"/><polygon class="cls-29" points="2022.15 2208.79 2464.66 2464.28 2464.62 2480.7 2022.1 2225.21 2022.15 2208.79"/><polygon class="cls-2" points="2022.16 2207.54 2087.55 2169.53 2114.57 2185.16 2072.62 2209.38 2074.08 2210.22 2074.08 2210.22 2111.81 2232.16 2111.82 2232.16 2111.93 2232.22 2153.98 2207.94 2157.16 2209.78 2114.59 2234.36 2126.98 2241.56 2153.79 2257.15 2153.8 2257.15 2153.9 2257.21 2196.56 2232.57 2200.2 2234.68 2157.06 2259.59 2165.18 2264.31 2196.26 2282.38 2196.27 2282.38 2196.36 2282.43 2239.62 2257.46 2242.8 2259.3 2199.03 2284.57 2200.49 2285.42 2200.48 2285.42 2238.23 2307.36 2238.24 2307.36 2238.34 2307.42 2282.2 2282.09 2285.72 2284.13 2241.74 2309.51 2260.7 2320.53 2280.96 2332.3 2280.96 2332.3 2281.06 2332.36 2325.14 2306.92 2328.34 2308.77 2284.48 2334.08 2294.58 2339.95 2323.68 2356.87 2323.68 2356.86 2323.8 2356.93 2367.75 2331.55 2370.92 2333.4 2326.45 2359.07 2356.02 2376.24 2365.66 2381.86 2365.66 2381.86 2365.78 2381.92 2410.34 2356.19 2413.97 2358.28 2368.92 2384.29 2377.75 2389.42 2408.11 2407.08 2408.13 2407.07 2408.23 2407.14 2453.38 2381.07 2456.55 2382.91 2410.9 2409.27 2412.36 2410.11 2412.35 2410.12 2436.12 2423.93 2450.21 2432.13 2464.82 2423.68 2464.8 2427.77 2453.61 2434.23 2464.76 2440.7 2464.66 2464.28 2022.15 2208.79 2022.16 2207.54"/><polygon class="cls-66" points="2072.62 2209.38 2114.57 2185.16 2116.03 2186 2074.08 2210.22 2072.62 2209.38"/><polygon class="cls-66" points="2111.82 2232.16 2153.87 2207.89 2153.98 2207.94 2111.93 2232.22 2111.82 2232.16"/><polygon class="cls-67" points="2111.81 2232.16 2074.08 2210.22 2074.08 2210.22 2116.03 2186 2153.87 2207.89 2111.82 2232.16 2111.81 2232.16"/><polygon class="cls-68" points="2153.8 2257.15 2196.46 2232.51 2196.56 2232.57 2153.9 2257.21 2153.8 2257.15"/><polygon class="cls-68" points="2126.98 2241.56 2114.59 2234.36 2157.16 2209.78 2158.61 2210.62 2116.04 2235.2 2126.98 2241.56"/><polygon class="cls-69" points="2153.79 2257.15 2126.98 2241.56 2116.04 2235.2 2158.61 2210.62 2196.46 2232.51 2153.8 2257.15 2153.79 2257.15"/><polygon class="cls-70" points="2165.18 2264.31 2157.06 2259.59 2200.2 2234.68 2201.67 2235.52 2158.51 2260.43 2165.18 2264.31"/><polygon class="cls-70" points="2196.27 2282.38 2239.52 2257.41 2239.62 2257.46 2196.36 2282.43 2196.27 2282.38"/><polygon class="cls-71" points="2196.26 2282.38 2165.18 2264.31 2158.51 2260.43 2201.67 2235.52 2239.52 2257.41 2196.27 2282.38 2196.26 2282.38"/><polygon class="cls-72" points="2199.03 2284.57 2242.8 2259.3 2244.25 2260.15 2200.49 2285.42 2199.03 2284.57"/><polygon class="cls-72" points="2238.24 2307.36 2282.1 2282.03 2282.2 2282.09 2238.34 2307.42 2238.24 2307.36"/><polygon class="cls-73" points="2238.23 2307.36 2200.48 2285.42 2200.49 2285.42 2244.25 2260.15 2282.1 2282.03 2238.24 2307.36 2238.23 2307.36"/><polygon class="cls-74" points="2280.96 2332.3 2325.03 2306.86 2325.14 2306.92 2281.06 2332.36 2280.96 2332.3"/><polygon class="cls-74" points="2260.7 2320.53 2241.74 2309.51 2285.72 2284.13 2287.18 2284.97 2243.2 2310.37 2260.7 2320.53"/><polygon class="cls-72" points="2280.96 2332.3 2260.7 2320.53 2243.2 2310.37 2287.18 2284.97 2325.03 2306.86 2280.96 2332.3 2280.96 2332.3"/><polygon class="cls-75" points="2323.68 2356.86 2367.63 2331.49 2367.75 2331.55 2323.8 2356.93 2323.68 2356.86"/><polygon class="cls-75" points="2294.58 2339.95 2284.48 2334.08 2328.34 2308.77 2329.8 2309.62 2285.94 2334.93 2294.58 2339.95"/><polygon class="cls-76" points="2323.68 2356.87 2294.58 2339.95 2285.94 2334.93 2329.8 2309.62 2367.63 2331.49 2323.68 2356.86 2323.68 2356.87"/><polygon class="cls-77" points="2365.66 2381.86 2410.22 2356.12 2410.34 2356.19 2365.78 2381.92 2365.66 2381.86"/><polygon class="cls-77" points="2356.02 2376.24 2326.45 2359.07 2370.92 2333.4 2372.38 2334.24 2327.92 2359.9 2356.02 2376.24"/><polygon class="cls-59" points="2365.66 2381.86 2356.02 2376.24 2327.92 2359.9 2372.38 2334.24 2410.22 2356.12 2365.66 2381.86 2365.66 2381.86"/><polygon class="cls-70" points="2377.75 2389.42 2368.92 2384.29 2413.97 2358.28 2415.43 2359.13 2370.38 2385.14 2377.75 2389.42"/><polygon class="cls-70" points="2408.13 2407.07 2453.27 2381.01 2453.38 2381.07 2408.23 2407.14 2408.13 2407.07"/><polygon class="cls-71" points="2408.11 2407.08 2377.75 2389.42 2370.38 2385.14 2415.43 2359.13 2453.27 2381.01 2408.13 2407.07 2408.11 2407.08"/><polygon class="cls-72" points="2436.12 2423.93 2450.1 2432.05 2464.82 2423.55 2464.82 2423.68 2450.21 2432.13 2436.12 2423.93"/><polygon class="cls-72" points="2410.9 2409.27 2456.55 2382.91 2458.01 2383.75 2412.36 2410.11 2410.9 2409.27"/><polygon class="cls-73" points="2436.12 2423.93 2412.35 2410.12 2412.36 2410.11 2458.01 2383.75 2464.95 2387.77 2464.82 2423.55 2450.1 2432.05 2436.12 2423.93"/><polygon class="cls-78" points="2464.8 2427.77 2464.8 2429.44 2455.07 2435.05 2464.76 2440.69 2464.76 2440.7 2453.61 2434.23 2464.8 2427.77"/><polygon class="cls-79" points="2464.8 2429.44 2464.76 2440.69 2455.07 2435.05 2464.8 2429.44"/><polygon class="cls-37" points="2286.85 2284.12 2318.88 2395.73 2336.86 2406.11 2303.66 2293.82 2286.85 2284.12"/><polygon class="cls-37" points="2391.41 2345.11 2423.43 2456.74 2432.58 2462.02 2399.55 2349.82 2391.41 2345.11"/><polygon class="cls-37" points="2335.43 2312.41 2367.46 2424.02 2407.64 2447.2 2373.63 2334.44 2335.43 2312.41"/><polygon class="cls-37" points="2262.46 2270.19 2294.48 2381.81 2303.63 2387.09 2270.59 2274.89 2262.46 2270.19"/><polygon class="cls-37" points="2105.11 2179.71 2137.14 2291.33 2155.12 2301.71 2121.92 2189.42 2105.11 2179.71"/><polygon class="cls-37" points="2209.67 2240.71 2241.7 2352.33 2250.85 2357.61 2217.81 2245.41 2209.67 2240.71"/><polygon class="cls-37" points="2153.69 2208 2185.72 2319.62 2225.9 2342.8 2191.89 2230.03 2153.69 2208"/><polygon class="cls-37" points="2080.72 2165.78 2112.74 2277.4 2121.88 2282.68 2088.86 2170.48 2080.72 2165.78"/><path class="cls-2" d="M1121.81,2036.14V1849.7h-81.39v186.62h0c0,6,4,12.08,12,16.68,16,9.21,41.72,9.21,57.55,0C1118,2048.35,1121.92,2042.23,1121.81,2036.14Z"/><path class="cls-62" d="M1121.81,2036.14V1849.7h-27.48v208.93A51,51,0,0,0,1110,2053C1118,2048.35,1121.92,2042.23,1121.81,2036.14Z"/><path class="cls-29" d="M1040.42,2036.32c0,6,4,12.08,12,16.68a44.47,44.47,0,0,0,5.24,2.53V1849.7h-17.25Z"/><path class="cls-80" d="M1109.8,1833c15.94,9.2,16,24.13.18,33.34s-41.6,9.21-57.55,0-16-24.13-.19-33.34S1093.86,1823.83,1109.8,1833Z"/><path class="cls-2" d="M1104.38,1846.64v-14.57h-46.54v14.5a7.51,7.51,0,0,0,0,2.17v.23h0c.5,3,2.76,6,6.79,8.33,9.15,5.29,23.95,5.29,33,0C1102.7,1854.38,1104.92,1850.46,1104.38,1846.64Z"/><path class="cls-29" d="M1097.57,1821.49c9.16,5.29,9.21,13.85.11,19.14s-23.89,5.28-33,0-9.2-13.85-.1-19.14S1088.42,1816.21,1097.57,1821.49Z"/><path class="cls-21" d="M1095.51,1822.69c8,4.63,8,12.12.09,16.74s-20.89,4.62-28.9,0-8-12.11-.08-16.74S1087.5,1818.07,1095.51,1822.69Z"/><path class="cls-81" d="M1095.6,1839.43a15.22,15.22,0,0,0,3.07-2.32,15.9,15.9,0,0,0-3.16-2.38c-8-4.62-20.93-4.62-28.89,0a16,16,0,0,0-3.08,2.32,16.2,16.2,0,0,0,3.16,2.38C1074.71,1844.05,1087.65,1844.05,1095.6,1839.43Z"/><path class="cls-2" d="M1216.61,2018.11v-64H1144.9v64.12h0c0,5.32,3.56,10.64,10.58,14.7,14,8.11,36.77,8.11,50.72,0C1213.26,2028.87,1216.71,2023.48,1216.61,2018.11Z"/><path class="cls-62" d="M1216.61,2018.11v-64H1193v83.66a44.46,44.46,0,0,0,13.22-4.84C1213.26,2028.87,1216.71,2023.48,1216.61,2018.11Z"/><path class="cls-29" d="M1144.9,2018.27c0,5.32,3.56,10.64,10.58,14.7a40.45,40.45,0,0,0,5,2.39v-81.21H1144.9Z"/><path class="cls-80" d="M1206,1939.92c14,8.11,14.13,21.27.16,29.38s-36.67,8.11-50.72,0-14.12-21.27-.16-29.38S1192,1931.81,1206,1939.92Z"/><path class="cls-82" d="M1196.18,1944.19c8.58,5,8.63,13,.1,17.93s-22.37,4.94-31,0-8.61-13-.1-17.93S1187.61,1939.24,1196.18,1944.19Z"/><path class="cls-2" d="M1190.17,1954.64v-6.17h-19.73v6.15a4,4,0,0,0,0,.92v.09h0a5.31,5.31,0,0,0,2.88,3.53,15.4,15.4,0,0,0,14,0C1189.46,1957.92,1190.4,1956.26,1190.17,1954.64Z"/><path class="cls-29" d="M1187.28,1944c3.88,2.24,3.9,5.87,0,8.11a15.4,15.4,0,0,1-14,0c-3.88-2.24-3.9-5.87,0-8.11A15.4,15.4,0,0,1,1187.28,1944Z"/><g class="cls-3"><g class="cls-3"><path class="cls-2" d="M1185.08,1833.66l-.32,113a2.16,2.16,0,0,1-1.27,1.76,6.75,6.75,0,0,1-6.14,0,2.17,2.17,0,0,1-1.28-1.78l.32-113a2.2,2.2,0,0,0,1.28,1.79,6.78,6.78,0,0,0,6.14,0A2.18,2.18,0,0,0,1185.08,1833.66Z"/><g class="cls-83"><g class="cls-3"><path class="cls-2" d="M1185.08,1833.66l-.32,113a1.41,1.41,0,0,1,0,.28l.32-113a1.43,1.43,0,0,0,0-.29Z"/><path class="cls-2" d="M1185.05,1834l-.32,113a2.29,2.29,0,0,1-1.19,1.46l.32-113a2.35,2.35,0,0,0,1.19-1.46Z"/><path class="cls-2" d="M1183.86,1835.41l-.32,113,0,0a4.39,4.39,0,0,1-1,.43l.33-113a4.28,4.28,0,0,0,1-.42l0,0Z"/><path class="cls-2" d="M1182.86,1835.85l-.33,113a7.12,7.12,0,0,1-2.74.29l.32-113a7,7,0,0,0,2.75-.3Z"/><path class="cls-2" d="M1180.11,1836.15l-.32,113a6,6,0,0,1-2.44-.71,2.17,2.17,0,0,1-1.28-1.78l.32-113a2.2,2.2,0,0,0,1.28,1.79,6.19,6.19,0,0,0,2.44.7Z"/></g></g></g><path class="cls-2" d="M1183.8,1831.88c1.7,1,1.7,2.57,0,3.55a6.78,6.78,0,0,1-6.14,0c-1.7-1-1.7-2.59,0-3.57A6.72,6.72,0,0,1,1183.8,1831.88Z"/></g><path class="cls-21" d="M1181.74,1949l.49-.1c.09,0,.21,0,.3-.06a4.39,4.39,0,0,0,1-.43l0,0a2.91,2.91,0,0,0,.85-.76,1.23,1.23,0,0,0,.12-.26,1.51,1.51,0,0,0,.22-.44,1.41,1.41,0,0,0,0-.28l.32-113a1.74,1.74,0,0,1-.16.47,1.89,1.89,0,0,0-1.12-2.25,6.49,6.49,0,0,0-3.49-.69v118h.4A5.91,5.91,0,0,0,1181.74,1949Z"/><polygon class="cls-84" points="1180.37 1837.76 1189.79 1833.76 1189.79 1780.62 1180.37 1784.62 1180.37 1837.76"/><polygon class="cls-84" points="1180.76 1837.76 1171.34 1833.76 1171.34 1780.62 1180.76 1784.62 1180.76 1837.76"/><path class="cls-2" d="M1187.85,1839c0,3.78-3.38,6.84-7.54,6.84h0c-4.17,0-7.55-3.06-7.55-6.84v-50c0-3.78,3.38-6.84,7.55-6.84h0c4.16,0,7.54,3.06,7.54,6.84Z"/><polygon class="cls-84" points="1177.1 1838.47 1167.66 1843.51 1167.66 1790.36 1177.1 1785.33 1177.1 1838.47"/><polygon class="cls-84" points="1177.1 1838.47 1167.66 1843.51 1167.66 1790.36 1177.1 1785.33 1177.1 1838.47"/><polygon class="cls-85" points="1177.1 1785.33 1172.13 1787.98 1172.13 1841.12 1177.1 1838.47 1177.1 1785.33"/><polygon class="cls-84" points="1180.31 1785.42 1175.34 1788.07 1175.34 1841.22 1180.31 1838.57 1180.31 1785.42"/><polygon class="cls-84" points="1184.38 1838.47 1193.8 1843.51 1193.8 1790.36 1184.38 1785.33 1184.38 1838.47"/><polygon class="cls-85" points="1184.38 1838.47 1189.52 1841.22 1189.52 1788.07 1184.38 1785.33 1184.38 1838.47"/><polygon class="cls-84" points="1181.89 1785.42 1186.86 1788.07 1186.86 1841.22 1181.89 1838.57 1181.89 1785.42"/><path class="cls-21" d="M526.87,1685.22v248.9h0c.11,9.62-6.16,19.24-18.83,26.55-25.23,14.56-66.27,14.49-91.66-.17-12.91-7.45-19.27-17.24-19.11-27l0-247.58h0l1,.57c2.24-7.23,8.17-14.15,17.83-19.73,25.23-14.57,66.27-14.49,91.66.16,9.31,5.38,15.2,12,17.72,18.87Z"/><path class="cls-23" d="M437.1,1721.31v245.61a82.75,82.75,0,0,1-16.75-6V1715.36A83.36,83.36,0,0,0,437.1,1721.31Z"/><path class="cls-23" d="M417.14,1713.67v245.62l-.77-.44c-1.52-.87-2.95-1.79-4.29-2.73V1710.51q2,1.41,4.29,2.72Z"/><path class="cls-24" d="M508,1712.22c-25.25,14.57-66.28,14.5-91.68-.17s-25.51-38.35-.29-52.92c18.61-10.73,45.79-13.51,69-8.35a80,80,0,0,1,22.71,8.51,45.13,45.13,0,0,1,13.82,11.77C531.77,1684.72,527.25,1701.11,508,1712.22Z"/><path class="cls-25" d="M521.57,1671.06l-34.38,19.84-35.91-20.65L485,1650.78a80,80,0,0,1,22.71,8.51A45.13,45.13,0,0,1,521.57,1671.06Z"/><path class="cls-26" d="M496.07,1595.76v81.84h0c.06,5-3.23,10.09-9.88,13.93-13.24,7.64-34.78,7.6-48.1-.09-6.77-3.91-10.11-9-10-14.16v-81.14h0l.53.3c1.17-3.79,4.28-7.42,9.35-10.35,13.24-7.65,34.78-7.61,48.1.08,4.88,2.82,8,6.28,9.3,9.9Z"/><path class="cls-23" d="M449,1614.7v80.11a43.53,43.53,0,0,1-8.79-3.13v-80.11A43.53,43.53,0,0,0,449,1614.7Z"/><path class="cls-23" d="M438.48,1610.69v80.11l-.4-.23c-.8-.46-1.55-.94-2.25-1.43V1609c.7.49,1.45,1,2.25,1.43Z"/><path class="cls-26" d="M486.18,1609.92c-13.24,7.65-34.78,7.61-48.1-.08s-13.39-20.13-.15-27.77,34.77-7.61,48.1.09S499.42,1602.28,486.18,1609.92Z"/><path class="cls-27" d="M486.18,1608c-13.24,7.64-34.78,7.6-48.1-.09-6.27-3.62-9.56-8.29-10-13-.45,5.36,2.85,10.81,10,14.92,13.32,7.69,34.86,7.73,48.1.08,7-4,10.25-9.43,9.81-14.75C495.59,1599.85,492.35,1604.45,486.18,1608Z"/><path class="cls-29" d="M729.62,1782.35V1966h0c.12,10.81-6.93,21.62-21.17,29.83-28.36,16.37-74.49,16.29-103-.19-14.5-8.37-21.66-19.37-21.48-30.31V1783.17h0l1.13.63c2.51-8.13,9.17-15.9,20-22.17,28.36-16.38,74.49-16.29,103,.18,10.46,6,17.09,13.44,19.91,21.21Z"/><path class="cls-23" d="M628.72,1821.63v183a92.3,92.3,0,0,1-18.82-6.7v-183A92.88,92.88,0,0,0,628.72,1821.63Z"/><path class="cls-23" d="M606.28,1813v183l-.87-.5q-2.55-1.47-4.82-3.06v-183c1.51,1,3.12,2.08,4.82,3.06Z"/><path class="cls-21" d="M708.45,1812.68c-28.38,16.4-74.49,16.29-103-.16s-28.68-43.12-.34-59.48c21.88-12.65,54.29-15.48,81.08-8.55a86.83,86.83,0,0,1,22,8.72,53.57,53.57,0,0,1,13.56,10.8C735.61,1779.8,731.2,1799.56,708.45,1812.68Z"/><path class="cls-86" d="M721.67,1764l-40.79,23.36,1.62-35.47,3.66-7.41a86.83,86.83,0,0,1,22,8.72A53.57,53.57,0,0,1,721.67,1764Z"/><path class="cls-26" d="M692,1724.7v47.72h0c.06,5.23-3.35,10.46-10.24,14.43-13.72,7.92-36,7.88-49.85-.09-7-4-10.48-9.37-10.39-14.67v-47h0l.54.31c1.21-3.94,4.44-7.7,9.69-10.73,13.73-7.93,36-7.88,49.85.08,5.07,2.93,8.27,6.51,9.64,10.26Z"/><path class="cls-23" d="M643.2,1743.67v47.42a44.81,44.81,0,0,1-9.11-3.24v-47.42A44.81,44.81,0,0,0,643.2,1743.67Z"/><path class="cls-23" d="M632.34,1739.52v47.42l-.42-.24c-.83-.48-1.6-1-2.33-1.49V1737.8c.73.51,1.5,1,2.33,1.48Z"/><path class="cls-26" d="M681.77,1739.38c-13.72,7.92-36,7.88-49.85-.09s-13.88-20.86-.16-28.78,36-7.88,49.85.09S695.49,1731.46,681.77,1739.38Z"/><path class="cls-27" d="M681.77,1736.86c-13.72,7.92-36,7.88-49.85-.09-6.38-3.69-9.79-8.42-10.3-13.23-.61,5.64,2.8,11.42,10.3,15.75,13.81,8,36.13,8,49.85.09,7.38-4.26,10.73-10,10.14-15.55C691.39,1728.58,688,1733.24,681.77,1736.86Z"/><polygon class="cls-30" points="1721.46 2401.52 1721.08 2533.13 1607.32 2599.25 1607.69 2467.63 1721.46 2401.52"/><polygon class="cls-31" points="1607.69 2467.63 1607.32 2599.25 1492.8 2533.14 1493.19 2401.52 1607.69 2467.63"/><polygon class="cls-32" points="1721.46 2401.52 1607.69 2467.63 1493.19 2401.52 1606.95 2335.41 1721.46 2401.52"/><polygon class="cls-33" points="1705.82 2410.94 1705.51 2524.31 1607.52 2581.25 1607.85 2467.89 1705.82 2410.94"/><polygon class="cls-34" points="1607.85 2467.89 1607.52 2581.25 1508.89 2524.32 1509.21 2410.95 1607.85 2467.89"/><polygon class="cls-35" points="1705.82 2410.94 1607.85 2467.89 1509.21 2410.95 1607.21 2354.01 1705.82 2410.94"/><path class="cls-36" d="M1639.71,2388.71c18.11,10.45,18.2,27.4.22,37.85s-47.24,10.45-65.35,0-18.18-27.4-.2-37.85S1621.61,2378.25,1639.71,2388.71Z"/><path class="cls-2" d="M1648,2407.51h0v-48.31h-81.38V2410h.25c1,5.19,4.87,10.22,11.76,14.2,15.94,9.2,41.71,9.2,57.55,0,6.83-4,10.69-9,11.6-14.2h.22Z"/><path class="cls-21" d="M1647.79,2410h.22v-2.46h0v-48.31h-29.13v70.93a52.07,52.07,0,0,0,17.31-5.95C1643,2420.19,1646.88,2415.16,1647.79,2410Z"/><path class="cls-29" d="M1566.63,2410h.25c1,5.19,4.87,10.22,11.76,14.2a46.78,46.78,0,0,0,9.84,4.19v-69.17h-21.85Z"/><path class="cls-26" d="M1636,2342.52c15.94,9.21,16,24.14.19,33.33s-41.61,9.21-57.55,0-16-24.12-.18-33.33S1620.07,2333.32,1636,2342.52Z"/><path class="cls-2" d="M1635.89,2356.06v-34h-57.14V2356h0v1.73h.17c.68,3.64,3.43,7.18,8.26,10,11.19,6.47,29.29,6.47,40.42,0,4.8-2.79,7.51-6.33,8.14-10h.15Z"/><path class="cls-29" d="M1578.75,2356h0v1.73h.17c.68,3.64,3.43,7.18,8.26,10,.41.25.86.46,1.3.68V2322.1h-9.73Z"/><path class="cls-21" d="M1635.74,2357.76h.15V2322.1h-17v49.07a33.83,33.83,0,0,0,8.72-3.44C1632.4,2364.94,1635.11,2361.4,1635.74,2357.76Z"/><path class="cls-28" d="M1627.47,2310.4c11.18,6.46,11.24,16.94.13,23.4s-29.23,6.47-40.42,0-11.25-16.94-.13-23.4S1616.26,2303.93,1627.47,2310.4Z"/><path class="cls-26" d="M1620.28,2314.46c7.31,4.22,7.34,11.06.09,15.29s-19.07,4.21-26.39,0-7.34-11.07-.08-15.29S1613,2310.24,1620.28,2314.46Z"/><polygon class="cls-37" points="1499.23 2405.01 1543.84 2561.02 1599.8 2593.3 1551.26 2435.56 1499.23 2405.01"/><polygon class="cls-37" points="1577.92 2450.61 1607.6 2554.42 1607.85 2467.89 1577.92 2450.61"/><path class="cls-28" d="M1622.4,2357.3a10.25,10.25,0,0,1,.31-1.33l0-.12c.13-.39.28-.77.43-1.15q.12-.3.27-.6c.12-.27.26-.55.4-.81s.21-.38.33-.57.33-.52.51-.77.24-.35.37-.52.39-.49.59-.72l.4-.45c.23-.24.48-.46.72-.67l.37-.33a9.37,9.37,0,0,1,1.16-.81c.25-.14.49-.26.73-.37l.22-.08a4.84,4.84,0,0,1,.49-.18l.22-.05a3,3,0,0,1,.5-.11l.17,0c.21,0,.42,0,.62,0h.08a3.45,3.45,0,0,1,.56.1l.17.05a3.61,3.61,0,0,1,.57.24l-5.06-2.94a2.72,2.72,0,0,0-.58-.24l-.16-.05a2.72,2.72,0,0,0-.57-.1h-.07a4.47,4.47,0,0,0-.63,0l-.18,0-.47.1-.24.07c-.16,0-.32.1-.49.16l-.22.1a6.9,6.9,0,0,0-.72.36,8.67,8.67,0,0,0-1.16.81c-.13.1-.25.22-.36.32a9.33,9.33,0,0,0-.73.68c-.14.14-.26.3-.39.45s-.41.47-.6.72l-.38.51c-.1.16-.22.3-.32.46l-.18.32-.33.57c-.14.26-.28.53-.4.81s-.19.4-.27.59-.1.21-.15.32c-.1.28-.19.56-.28.84a.49.49,0,0,1,0,.11c-.13.45-.23.9-.31,1.33a3.06,3.06,0,0,1,0,.32,10,10,0,0,0-.1,1.32c0,1.92.68,3.26,1.77,3.9l5.07,2.94c-1.1-.64-1.77-2-1.78-3.89a7.28,7.28,0,0,1,.12-1.32A1.75,1.75,0,0,1,1622.4,2357.3Z"/><path class="cls-29" d="M1622.24,2358.94a7.28,7.28,0,0,1,.12-1.32,1.75,1.75,0,0,1,0-.32,10.25,10.25,0,0,1,.31-1.33l0-.12c.13-.39.28-.77.43-1.15q.12-.3.27-.6c.12-.27.26-.55.4-.81s.21-.38.33-.57.33-.52.51-.77.24-.35.37-.52.39-.49.59-.72l.4-.45c.23-.24.48-.46.72-.67l.37-.33a9.37,9.37,0,0,1,1.16-.81c.25-.14.49-.26.73-.37l.22-.08a4.84,4.84,0,0,1,.49-.18l.22-.05a3,3,0,0,1,.5-.11l.17,0c.21,0,.42,0,.62,0h.08a3.45,3.45,0,0,1,.56.1l.17.05a3.61,3.61,0,0,1,.57.24l-4.21-2.44a2.41,2.41,0,0,0-.38,0l-.19,0a4.37,4.37,0,0,0-.5.09l-.24.08a5.08,5.08,0,0,0-.51.17l-.23.1a5.79,5.79,0,0,0-.75.37,9.81,9.81,0,0,0-1.22.84l-.38.35c-.26.23-.51.45-.76.7s-.27.32-.41.47-.43.5-.62.75-.26.36-.38.54-.24.31-.35.48-.11.22-.19.33l-.34.59c-.15.28-.29.56-.42.85s-.19.41-.28.62-.1.22-.14.33c-.12.29-.21.58-.31.87l0,.12a10.29,10.29,0,0,0-.32,1.39c0,.12,0,.22-.06.33a11,11,0,0,0-.11,1.38,5.26,5.26,0,0,0,1,3.27l3.77,2.19C1622.92,2362.19,1622.25,2360.85,1622.24,2358.94Z"/><path class="cls-28" d="M1628.29,2348.45c3.37-1.94,6.09-.39,6.1,3.46a13.31,13.31,0,0,1-6.06,10.49c-3.35,1.94-6.08.39-6.09-3.46A13.35,13.35,0,0,1,1628.29,2348.45Z"/><path class="cls-21" d="M1628.6,2350.73c2.44-1.42,4.41-.29,4.43,2.52a9.69,9.69,0,0,1-4.41,7.61c-2.43,1.41-4.41.29-4.42-2.52A9.66,9.66,0,0,1,1628.6,2350.73Z"/><g class="cls-38"><polygon class="cls-39" points="1678.87 2313.09 1678.62 2399.51 1603.91 2442.93 1604.15 2356.5 1678.87 2313.09"/><polygon class="cls-40" points="1604.15 2356.5 1603.91 2442.93 1528.72 2399.51 1528.96 2313.09 1604.15 2356.5"/><polygon class="cls-41" points="1678.87 2313.09 1604.15 2356.5 1528.96 2313.09 1603.67 2269.67 1678.87 2313.09"/></g><polygon class="cls-37" points="1668.23 2432.46 1624.88 2457.64 1657.1 2570.32 1702.52 2543.92 1668.23 2432.46"/><polygon class="cls-21" points="500.26 2135.93 488.91 2129.33 489.29 2262.41 500.63 2269.02 500.26 2135.93"/><polygon class="cls-28" points="753.2 1989.9 741.85 1983.3 488.91 2129.33 500.26 2135.93 753.2 1989.9"/><polygon class="cls-26" points="500.26 2135.93 500.63 2269.02 753.58 2122.97 753.2 1989.9 500.26 2135.93"/><polygon class="cls-87" points="508.36 2140.97 508.72 2241.15 745.48 2104.46 745.12 2004.27 508.36 2140.97"/><polygon class="cls-30" points="742.53 2005.76 742.88 2102.72 508.7 2237.92 508.36 2140.97 742.53 2005.76"/><polygon class="cls-21" points="500.17 2255.59 500.21 2268.72 615.27 2335.59 615.23 2322.46 500.17 2255.59"/><polygon class="cls-29" points="615.23 2322.46 615.27 2335.59 868.21 2189.55 868.17 2176.43 615.23 2322.46"/><polygon class="cls-26" points="500.17 2255.59 615.23 2322.46 868.17 2176.43 753.1 2109.56 500.17 2255.59"/><path class="cls-88" d="M724.11,2149.49c-18.67,10.78-18.8,28.24-.24,39s48.68,10.77,67.36,0,18.76-28.22.21-39S742.75,2138.72,724.11,2149.49Z"/><path class="cls-89" d="M724.11,2149.49c18.64-10.77,48.79-10.78,67.33,0a32.69,32.69,0,0,1,9.72,8.26,36.62,36.62,0,0,0-7-5.25c-18.55-10.78-48.69-10.76-67.34,0-14.41,8.32-17.72,20.62-10,30.76C705.82,2172.65,708.23,2158.65,724.11,2149.49Z"/><path class="cls-59" d="M646.52,2194.28c-18.67,10.78-18.79,28.24-.24,39s48.69,10.77,67.35,0,18.78-28.23.23-39S665.17,2183.52,646.52,2194.28Z"/><path class="cls-67" d="M646.52,2194.28c18.65-10.76,48.78-10.77,67.34,0a33,33,0,0,1,9.72,8.26,36.68,36.68,0,0,0-7-5.24c-18.55-10.78-48.69-10.77-67.34,0-14.42,8.33-17.72,20.62-10,30.76C628.23,2217.45,630.63,2203.46,646.52,2194.28Z"/><path class="cls-79" d="M571.68,2237.49c-18.65,10.77-18.77,28.23-.22,39s48.69,10.76,67.34,0,18.78-28.24.24-39S590.35,2226.71,571.68,2237.49Z"/><path class="cls-90" d="M571.68,2237.49c18.67-10.78,48.81-10.79,67.36,0a32.67,32.67,0,0,1,9.72,8.26,35.87,35.87,0,0,0-7-5.24c-18.55-10.79-48.69-10.77-67.36,0-14.4,8.31-17.7,20.61-9.94,30.75C553.41,2260.64,555.81,2246.64,571.68,2237.49Z"/><path class="cls-28" d="M508.59,2204.78a48.3,48.3,0,0,0,5.35-2.63c14.42-8.32,17.72-20.62,10-30.76h0s0,0,0,0a26.16,26.16,0,0,0-1.86-2.17l-.11-.1a28.18,28.18,0,0,0-2.08-2c-.23-.2-.49-.38-.72-.57-.61-.49-1.2-1-1.88-1.45-1-.68-2-1.34-3.06-2a48.65,48.65,0,0,0-5.75-2.81l-.05-15.81a22.11,22.11,0,0,0,6,9.2h0a35.88,35.88,0,0,0,7,5.24c18.55,10.78,48.7,10.77,67.35,0,15.46-8.93,18.15-22.44,8.08-32.94l-.08-.07a27.28,27.28,0,0,0-2.12-2c-.21-.18-.46-.36-.68-.54-.62-.5-1.22-1-1.91-1.48-.95-.67-2-1.33-3-2-8.46-4.91-19.32-7.55-30.4-8l26.71-15.43c.06.54.15,1.08.26,1.62l.06.24c1.32,5.77,5.74,11.34,13.38,15.77,18.54,10.79,48.68,10.77,67.36,0,14.39-8.31,17.69-20.61,9.93-30.75h0l0,0a25.9,25.9,0,0,0-1.85-2.16l-.1-.1a28.55,28.55,0,0,0-2.1-2c-.22-.19-.48-.37-.7-.56-.62-.5-1.22-1-1.89-1.46-.95-.68-2-1.34-3.06-2-8.45-4.92-19.31-7.56-30.39-8l23.58-13.62,83.09,48.29v.51L508.7,2237.53Z"/><path class="cls-88" d="M669.3,2078.16a36.68,36.68,0,0,1,7,5.24c7.76,10.14,4.46,22.44-9.93,30.75-18.68,10.78-48.82,10.8-67.36,0-7.64-4.43-12.06-10-13.38-15.77a21.39,21.39,0,0,0,6.37,10.53c-3.4-4.44-4.68-9.29-3.83-14l42.7-24.65C644.61,2069.43,658.81,2072.06,669.3,2078.16Z"/><path class="cls-91" d="M585.32,2096.53h0c.06.54.13,1.09.24,1.63C585.47,2097.61,585.38,2097.07,585.32,2096.53Z"/><path class="cls-91" d="M674.34,2081.12c-.65-.67-1.35-1.34-2.1-2A28.55,28.55,0,0,1,674.34,2081.12Z"/><path class="cls-91" d="M676.29,2083.38a27.93,27.93,0,0,0-1.85-2.16A25.9,25.9,0,0,1,676.29,2083.38Z"/><path class="cls-91" d="M671.54,2078.58c-.61-.5-1.22-1-1.89-1.46C670.32,2077.59,670.92,2078.08,671.54,2078.58Z"/><path class="cls-89" d="M669.65,2077.12c.67.47,1.28,1,1.89,1.46.22.19.48.37.7.56.75.64,1.45,1.31,2.1,2l.1.1a27.93,27.93,0,0,1,1.85,2.16l0,0h0a36.68,36.68,0,0,0-7-5.24c-10.49-6.1-24.69-8.73-38.42-7.93l5.32-3.07c11.08.43,21.94,3.07,30.39,8C667.68,2075.78,668.7,2076.44,669.65,2077.12Z"/><path class="cls-89" d="M592,2108.92a21.39,21.39,0,0,1-6.37-10.53l-.06-.24c-.11-.54-.18-1.09-.24-1.63l2.84-1.64C587.33,2099.63,588.61,2104.48,592,2108.92Z"/><path class="cls-88" d="M594,2123.39c-.61-.5-1.23-1-1.91-1.48C592.75,2122.39,593.35,2122.89,594,2123.39Z"/><path class="cls-88" d="M508.38,2144.52v-.23a22.06,22.06,0,0,0,6,9.43A22.11,22.11,0,0,1,508.38,2144.52Z"/><path class="cls-88" d="M596.77,2125.94a29.2,29.2,0,0,0-2.12-2A27.28,27.28,0,0,1,596.77,2125.94Z"/><path class="cls-59" d="M591.72,2123a36.29,36.29,0,0,1,7,5.24,26.82,26.82,0,0,0-1.87-2.19c10.07,10.5,7.38,24-8.08,32.94-18.65,10.78-48.8,10.79-67.35,0a35.88,35.88,0,0,1-7-5.24c-3.4-4.44-4.68-9.29-3.83-14l42.7-24.65C567,2114.23,581.22,2116.86,591.72,2123Z"/><path class="cls-67" d="M592.06,2121.91c.68.48,1.3,1,1.91,1.48.22.18.47.36.68.54a29.2,29.2,0,0,1,2.12,2l.08.07a26.82,26.82,0,0,1,1.87,2.19,36.29,36.29,0,0,0-7-5.24c-10.5-6.1-24.7-8.73-38.43-7.93l5.32-3.07c11.08.43,21.94,3.07,30.4,8C590.09,2120.58,591.11,2121.24,592.06,2121.91Z"/><path class="cls-67" d="M514.42,2153.72h0a22.06,22.06,0,0,1-6-9.43V2141l2.23-1.29C509.74,2144.43,511,2149.28,514.42,2153.72Z"/><path class="cls-79" d="M523.89,2171.38a26.16,26.16,0,0,0-1.86-2.17A26.16,26.16,0,0,1,523.89,2171.38Z"/><path class="cls-79" d="M519.12,2166.56c-.6-.49-1.21-1-1.88-1.45C517.92,2165.58,518.51,2166.07,519.12,2166.56Z"/><path class="cls-79" d="M523.9,2171.39c7.76,10.14,4.46,22.44-10,30.76a48.3,48.3,0,0,1-5.35,2.63l-.15-42.51a52.3,52.3,0,0,1,8.46,3.89A36.47,36.47,0,0,1,523.9,2171.39Z"/><path class="cls-79" d="M521.92,2169.11a28.18,28.18,0,0,0-2.08-2A28.18,28.18,0,0,1,521.92,2169.11Z"/><path class="cls-90" d="M517.24,2165.11c.67.47,1.28,1,1.88,1.45.23.19.49.37.72.57a28.18,28.18,0,0,1,2.08,2l.11.1a26.16,26.16,0,0,1,1.86,2.17s0,0,0,0h0a36.47,36.47,0,0,0-7-5.23,52.3,52.3,0,0,0-8.46-3.89v-1.94a48.65,48.65,0,0,1,5.75,2.81C515.27,2163.77,516.29,2164.43,517.24,2165.11Z"/><polygon class="cls-37" points="701.39 2029.12 666.86 2149.45 647.48 2160.64 683.27 2039.59 701.39 2029.12"/><polygon class="cls-37" points="588.67 2094.88 554.15 2215.21 544.29 2220.9 579.89 2099.95 588.67 2094.88"/><polygon class="cls-37" points="649.03 2059.61 614.5 2179.95 571.17 2204.93 607.84 2083.37 649.03 2059.61"/><polygon class="cls-37" points="727.69 2014.1 693.17 2134.43 683.31 2140.13 718.91 2019.17 727.69 2014.1"/><path class="cls-2" d="M1452,2194.52c0,11.67,16.43,21.08,36.63,21s36.55-9.55,36.53-21.21l0-133c0,11.67-16.32,21.17-36.52,21.22s-36.6-9.37-36.63-21Z"/><path class="cls-26" d="M1525.17,2061.31c0,11.67-16.32,21.17-36.52,21.22s-36.6-9.37-36.63-21,16.32-21.17,36.52-21.22S1525.14,2049.64,1525.17,2061.31Z"/><path class="cls-2" d="M1456.18,2059.16c0,10.34,14.57,18.69,32.48,18.65s32.41-8.47,32.39-18.82l0-39.69c0,10.35-14.48,18.77-32.39,18.81s-32.46-8.3-32.48-18.65Z"/><path class="cls-26" d="M1521,2019.3c0,10.35-14.48,18.77-32.39,18.81s-32.46-8.3-32.48-18.65,14.47-18.77,32.39-18.81S1521,2009,1521,2019.3Z"/><ellipse class="cls-28" cx="1488.59" cy="2019.38" rx="27.01" ry="15.6" transform="matrix(1, 0, 0, 1, -5.05, 3.73)"/><path class="cls-29" d="M1512.63,1969.75c-.1-19.77-17.36-39.93-24-39.93s-24,20.28-24,40.11v49.49c0,7.67,10.8,13.86,24.08,13.83s24-6.28,24-14v-49.49S1512.63,1969.77,1512.63,1969.75Z"/><path class="cls-2" d="M1507.34,1968c0,6-8.37,10.85-18.72,10.87s-18.78-4.8-18.78-10.78c0-13.11,11.84-32.72,18.72-32.75S1507.34,1954.26,1507.34,1968Z"/><path class="cls-2" d="M1611.41,2245.21c0,11.67,16.43,21.09,36.63,21s36.56-9.55,36.53-21.22l0-133c0,11.66-16.32,21.16-36.52,21.21s-36.6-9.36-36.63-21Z"/><path class="cls-26" d="M1684.54,2112c0,11.66-16.32,21.16-36.52,21.21s-36.6-9.36-36.63-21,16.32-21.17,36.52-21.22S1684.51,2100.34,1684.54,2112Z"/><path class="cls-2" d="M1615.55,2109.85c0,10.35,14.57,18.7,32.48,18.65s32.41-8.46,32.39-18.81l0-39.69c0,10.34-14.48,18.76-32.39,18.81s-32.45-8.31-32.48-18.65Z"/><path class="cls-26" d="M1680.4,2070c0,10.34-14.48,18.76-32.39,18.81s-32.45-8.31-32.48-18.65,14.47-18.77,32.39-18.81S1680.37,2059.65,1680.4,2070Z"/><ellipse class="cls-28" cx="1647.96" cy="2070.08" rx="27.01" ry="15.6" transform="translate(-5.17 4.13) rotate(-0.14)"/><path class="cls-60" d="M1672,2020.45c-.1-19.77-17.36-39.94-24-39.94s-24,20.29-24,40.11v49.5c0,7.67,10.8,13.86,24.08,13.82s24-6.27,24-13.94v-49.5S1672,2020.47,1672,2020.45Z"/><path class="cls-59" d="M1666.71,2018.64c0,6-8.37,10.85-18.72,10.88s-18.78-4.8-18.78-10.78c0-13.11,11.84-32.73,18.72-32.75S1666.71,2005,1666.71,2018.64Z"/><path class="cls-11" d="M2306.69,1814.32l-112.93,79.84-43.31,28.73s4,19.86,37.07,10.6l38.4-15.89-40.76,121.81s5,15.89,24.87-4c0,0-4,34.42,26.48,35.75s62.23-21.19,90-71.5c10.41-18.85,49.95-53.11,63.55-82.09,22.71-48.39,23.84-82.1,23.84-82.1Z"/><path class="cls-14" d="M1859.05,1130.09c-32.52,49.9-81.22,193.94-98.06,261.27s-65.13,266.39-65.13,266.39,79.77,27.07,95.87,39.51c69.53-136.85,217.73-437.79,222.67-508.7S1881,1096.42,1859.05,1130.09Z"/><path class="cls-11" d="M1792.82,1683.33c-2.55,12.12-5.89,28.89-5.89,40,0,10.89-3.24,31.79-10.54,39.08s-33.72,27.66-38.81,31.35-9,15.37-14.67,15.9a18,18,0,0,1-8.08-.79c-8.69-3-10.89-12.65-10.89-19.68,0-8.25,7.29-17.74,8.26-19-2.55,1-47.43,20.9-58.4,28.45-11.33,7.64-57.44,27-74.65,28.89s-23.45-3.69-23.45-3.69-14.66,5.18-21.25,6.24a10.78,10.78,0,0,1-10.54-4.83,13.73,13.73,0,0,1-2.2-6.5c-.43-6.59,10.19-19.76,10.19-19.76s.18-1.32.53-3.16v-.09c.61-3.16,1.67-7.73,2.81-9.57,1.84-2.9,19-11.33,24.86-15.72s56-49.8,60.41-52.35,57.44-35.12,66.92-39.51,15-13.88,21.08-28.2C1708.51,1650.39,1795.36,1671.3,1792.82,1683.33Z"/><path class="cls-14" d="M2520.64,799.3c-39.08,17.82-79,40.25-87.09,215.89s-30,420.81,54.16,407.63,98.8-49.76,120.75-113.43,22-355.67,11-428.12S2570.41,776.62,2520.64,799.3Z"/><path class="cls-7" d="M2282.07,503.64c8.78,52.14,42.26,113.07,47.2,132.28s5.49,61.47-35.68,101-79.59,52.15-99.35,49.4-25.79-17-32.93-25.79-22.5-55.4-33.48-77.38c-8.53-17.07,99-194.38,143.05-237.66C2283.54,433.05,2282.07,503.64,2282.07,503.64Z"/><path class="cls-6" d="M2118.86,708.19c-5.49,34,4,79,18.67,121.48,23.42-15,37.21-42.46,39.88-45.37s8.05-9.15,8.05-9.15-29.27-26-41.71-42.45-16.44-27.07-16.44-27.07h-7.71Z"/><path class="cls-11" d="M1970.58,406.49c-8.51,34-8.79,42.26-6,79.58s9.88,53.8,22,72.46c9.33,33.48,26.63,79.86,47.76,101.82s20.58,25.79,21.95,29.36a26.85,26.85,0,0,0,4.67,7.13S2080.63,733.25,2100,738s96.74-32.74,145.21-78.35c39-36.73.06-125.28,14.88-192.25s-166.86-124-200.34-109.77S1970.58,406.49,1970.58,406.49Z"/><path class="cls-6" d="M2308.41,577.55c4.52,6.26,35.72,13.91,23.17,43.91s-47.32,91.48-93.79,124.42-52.33,29.27-52.33,29.27-4.39,13.54,5.86,31.1,26,45.74,31.46,47.21,69.9-55.62,113.81-111.61,48.67-78.31,48.66-90-20.12-55.25-35.86-72.45S2314,563.1,2314,563.1Z"/><path class="cls-6" d="M2166.25,1423.5l8.79-.33c-.53-13.78-7.23-34.54-15.68-60.82-18.43-57.2-46.27-143.65-31.59-231.72,8.34-50,19.47-106.17,30.24-160.48,17.08-86.19,31.84-160.62,31.84-191.53h-8.78c0,30-15.38,107.65-31.69,189.83-10.77,54.37-21.92,110.59-30.28,160.73-15,90.18,13.22,177.85,31.9,235.86C2159.26,1390.68,2165.78,1410.94,2166.25,1423.5Z"/><path class="cls-12" d="M2070.2,434.85c-11.59-14.63-53.79,8.78-71.72,6.58s-26.8-11-28.41-9.14-3.44,4-5.26,14.27S1963,459,1963,459s-10.62-16.83-2.2-52.69S2048.24,208.71,2165.7,249c77.94,1.83,110.88,37,123,59.28s28.54,78.3,40.62,124.41,2.56,89.23-6.22,104.08-11.35,33.51-9.88,50.7l1.46,17.2s-30-64.4-30.74-73.91,19.76-45.94,9.15-54.53-29.84,6.23-29.84,6.23-14.23,21.42-14.8,38.05,2.93,45.74,2.93,51.23-6.86-20.31-10.2-27.9-8.83-27.69-33.71-36.12S2092.52,463,2070.2,434.85Z"/><path class="cls-12" d="M2327,447.11a34.25,34.25,0,0,1,8,19.21c6.64,77.48,48.35,170.7,59.06,193.2s-15.37,43.41-53.25,23.62-67-41.18-73.54-108.15S2287.33,456.44,2327,447.11Z"/><path class="cls-11" d="M2263.2,502.72c-1.89-18.37,16.49-42.08,41.92-41.89s24.88,42.63,17.2,60.74S2296,558.89,2287,564s-16.83.91-19.57-5.86.91-21.22-.37-27.62S2263.92,509.68,2263.2,502.72Z"/><path class="cls-14" d="M2424.92,1234c-13.32,67.34-139.74,576.15-141.21,582,55.62,45.37,109.59,37.13,130.09,26.89s191.45-494,198.8-549.37S2424.92,1234,2424.92,1234Z"/><path class="cls-11" d="M482,1302.74l90.27.85a125.78,125.78,0,0,1,88.86,37.93l59.24,60.69s0,68.17-101.42,7.07l85.07,126c16.63,24.64-7.25,56.57-35.51,47.34-54.58-17.81-123.12-46.42-162.81-86.53-73.41-74.17-145.83-93.23-145.83-93.23S380.41,1267.85,482,1302.74Z"/><path class="cls-6" d="M314.63,730.84S311.24,584.33,211,557.68,63.49,788,44.17,1058.61c0,0-51,192.76,50.62,247.49,109.13,58.79,314.41,133.52,314.41,133.52s-21.81-99.2,84.39-133.52L273.15,1173.3Z"/><polygon class="cls-13" points="3835.55 1474.23 3743.64 1713.21 4031.64 1498.74 3835.55 1474.23"/></g></g></g></svg>